<svg xmlns="http://www.w3.org/2000/svg" xmlns:xlink="http://www.w3.org/1999/xlink" width="320" height="230" viewBox="0 0 320 230">
  <defs>
    <clipPath id="clip-path">
      <rect id="Rectangle_1" data-name="Rectangle 1" width="320" height="230"/>
    </clipPath>
    <clipPath id="clip-path-2">
      <path id="Path_241" data-name="Path 241" d="M497.393,294.663l-1.234,2.016,18.4,11.159,1.247-2.008c1.907-2.99-.668-7.913-5.754-11S499.3,291.674,497.393,294.663Z" transform="translate(-496.159 -292.47)" fill="none"/>
    </clipPath>
    <clipPath id="clip-path-3">
      <path id="Path_262" data-name="Path 262" d="M255.771,252.485l.768-2.236-20.384-6.9-.782,2.231c-1.214,3.332,2.368,7.579,8,9.488S254.556,255.816,255.771,252.485Z" transform="translate(-235.137 -243.344)" fill="none"/>
    </clipPath>
    <clipPath id="clip-path-4">
      <path id="Path_271" data-name="Path 271" d="M450.96,104.289l-1.476-1.756-19.309,16.223,1.463,1.767c3.923,4.669,11.428,4.819,16.764.337S454.883,108.958,450.96,104.289Z" transform="translate(-430.176 -102.533)" fill="none"/>
    </clipPath>
  </defs>
  <g id="img_money_back_guarantee" clip-path="url(#clip-path)">
    <g id="img_cashback" clip-path="url(#clip-path)">
      <g id="Group_397" data-name="Group 397" transform="translate(-59 -312)">
        <rect id="Rectangle_463" data-name="Rectangle 463" width="320" height="230" transform="translate(59 312)" fill="none"/>
        <g id="Group_1" data-name="Group 1" transform="translate(1254.035 -561.72)">
          <g id="OBJECT" transform="translate(-1195.035 887.248)">
            <path id="Path_10" data-name="Path 10" d="M231.415,57.5c-18.684,30.068-62.469,48.017-111.432,76.964-38.5,22.759-25.06,73.8,6.9,81.383,25.627,6.083,78.376-.645,114.406,4.828,43.469,6.6,82.943,8.149,102.48-12.619q1.3-1.383,2.482-2.9c18.686-24,25.787-59.313-4-90.349-30.078-31.345-9.443-48.623-29.418-75.176C300.542,23.288,263.626,5.666,231.415,57.5Z" transform="translate(-85.852 -23)" fill="#4aa3ff" opacity="0.24"/>
            <g id="Group_6" data-name="Group 6" transform="translate(231.383 108.117)">
              <g id="Group_5" data-name="Group 5">
                <path id="Path_11" data-name="Path 11" d="M510.9,274.516c-3.658,16.321-15.783,26-26.981,25.525-3.891-3.63-7.4-7.091-10.758-10.329q-1.8-1.742-3.568-3.4a15.457,15.457,0,0,0,5.578,1.189c8.217.271,17.239-5.872,21.952-16.951C501.251,271.6,505.678,273.06,510.9,274.516Z" transform="translate(-469.596 -270.551)" fill="#99c97a"/>
                <path id="Path_12" data-name="Path 12" d="M517.563,303.492a4.5,4.5,0,0,1,1.086,7.706c-2.822,2.483-8.135,1.776-11.225-.382-3.118-2.183-3.048-4.257-.192-5.892C510.125,303.312,514.51,302.134,517.563,303.492Z" transform="translate(-490.252 -289.376)" fill="#78b360"/>
                <path id="Path_13" data-name="Path 13" d="M471.58,309.609c4.373,3.963,8.875,8.325,14.044,12.976q-.537.012-1.071-.005c-5.108-4.767-9.551-9.234-13.871-13.3Q471.125,309.458,471.58,309.609Z" transform="translate(-470.228 -293.09)" fill="#78b360"/>
                <path id="Path_14" data-name="Path 14" d="M494.893,274.922c-5.545,9.261-14.4,13.722-22.029,12.349a15.233,15.233,0,0,1-3.267-.957l.91.856q1.169,1.107,2.354,2.25a2.543,2.543,0,0,0,.8.139c.782-.021.794-.672.012-1.532,7.773,1.277,16.736-3.424,22.207-12.992a4.879,4.879,0,0,0,3.643-2.353c2.336.7,4.791,1.481,7.441,2.3a4.768,4.768,0,0,0,1.348,4.265C504.02,290.7,495.248,297.8,486.5,298.9a19.467,19.467,0,0,0-5.123-2.156,9.429,9.429,0,0,0-1.171-.225q1.3,1.245,2.651,2.521.529.5,1.067,1a20.164,20.164,0,0,0,3.839-.246c8.729-1.353,17.361-8.553,21.571-19.987q.666-1.807,1.19-3.757.2-.757.379-1.533-.532-.148-1.053-.3-1.335-.379-2.6-.754c-2.515-.742-4.848-1.456-7.069-2.087q-1.121-.319-2.207-.609l-.423-.112-.42-.108a35.8,35.8,0,0,1-2.238,4.375Z" transform="translate(-469.597 -270.552)" fill="#78b360"/>
                <g id="Group_4" data-name="Group 4" transform="translate(18.133 16.827)">
                  <path id="Path_15" data-name="Path 15" d="M513.058,310.908l.077-.046a.64.64,0,0,1,.546.012l.522.289a3.412,3.412,0,0,1,1.254-.279,1.018,1.018,0,0,1,.433.03l.1.051c.137.074.13.187-.023.337a1.546,1.546,0,0,1-.667.087,2.051,2.051,0,0,0-.49.109q.947.527,1.913,1.069a4.206,4.206,0,0,1,1.825-.223,3.113,3.113,0,0,1,1.1.3,1.265,1.265,0,0,1,.675,1.815l-.075.081.561.313c.173.158.191.292.051.4a.637.637,0,0,1-.625.037l-.461-.262a1.913,1.913,0,0,0-.428.2,3.569,3.569,0,0,1-1.767.171l-.116-.05c-.181-.15-.189-.273-.03-.373a1.69,1.69,0,0,1,.792-.056,2.325,2.325,0,0,0,.887-.269l-2.493-1.427a2.681,2.681,0,0,1-1.183.169,2.834,2.834,0,0,1-1.4-.364l-.117-.069c-.523-.313-.686-.693-.5-1.162a.76.76,0,0,1,.218-.273l-.572-.323Q512.883,311.009,513.058,310.908Zm1.524,1.774.129.075a1.929,1.929,0,0,0,1.356.151q-.87-.5-1.723-.983a.508.508,0,0,0,.238.757Zm2.876.3,2.2,1.232.016-.011a.793.793,0,0,0-.419-1.007l-.168-.092a2.4,2.4,0,0,0-1.629-.124Z" transform="translate(-512.974 -310.807)" fill="#3d5b2e"/>
                </g>
                <path id="Path_16" data-name="Path 16" d="M475.471,311.477a15.369,15.369,0,0,1-1.536-.4l1.533,1.406C475.466,312.494,476.364,312.534,475.471,311.477Z" transform="translate(-472.121 -294.134)" fill="#5e8f47"/>
                <path id="Path_17" data-name="Path 17" d="M503.179,336.48q-.885.079-1.765.079-.883-.8-1.743-1.593a11.546,11.546,0,0,1,3.508,1.514Z" transform="translate(-487.099 -308.039)" fill="#5e8f47"/>
                <path id="Path_18" data-name="Path 18" d="M533.67,276.268q.535-1,1.019-2.053.714.2,1.44.413A3.6,3.6,0,0,1,533.67,276.268Z" transform="translate(-506.886 -272.683)" fill="#5e8f47"/>
                <path id="Path_19" data-name="Path 19" d="M561.774,284.694q.41-1.184.755-2.423-.872-.26-1.716-.518a3.511,3.511,0,0,0,.961,2.941Z" transform="translate(-522.668 -277.07)" fill="#5e8f47"/>
              </g>
            </g>
            <g id="Group_318" data-name="Group 318" transform="translate(93.54 94.534)">
              <path id="Path_309" data-name="Path 309" d="M-1515.59,1125.9l2.508,10.868,37.789-5.852-43.808,24.412V1125.9Z" transform="translate(1576.291 -1078.594)" fill="#fbc0a2"/>
              <path id="Path_311" data-name="Path 311" d="M-1546.48,1075.4s6.688-.669,10.367-2.843,3.511-3.846,3.511-3.846-6.855-33.608-13.878-39.293-14.38.836-12.039,13.543S-1546.48,1075.4-1546.48,1075.4Z" transform="translate(1599.489 -1021.239)" fill="#f68634"/>
              <path id="Path_305" data-name="Path 305" d="M-1652.73,1113.58s-7.692-80.635.836-90.667,31.1-12.541,40.965-8.026,11.872,26.419,12.206,32.773,1.337,65.921,1.337,65.921Z" transform="translate(1655.916 -1012.732)" fill="#fe6500"/>
            </g>
            <g id="Group_316" data-name="Group 316" transform="translate(0 12.389)">
              <g id="Group_3" data-name="Group 3" transform="translate(0 17.037)">
                <g id="Group_2" data-name="Group 2">
                  <path id="Path_1" data-name="Path 1" d="M135.259,127.915C129.866,146,112,160.8,90.042,160.826A56,56,0,0,1,75.35,143.412,56.787,56.787,0,0,1,72.007,136a34.2,34.2,0,0,0,9.53,4.291,33.778,33.778,0,0,0,34.49-10.522,26.652,26.652,0,0,0,19.232-1.854Z" transform="translate(-72.007 -127.915)" fill="#99c97a"/>
                  <path id="Path_2" data-name="Path 2" d="M146.863,162.67c4.413,1.069,5.48,4.357.9,7.6-4.565,3.274-13.277,3.142-17.653-.185-4.395-3.3-3.137-6.445,1.369-7.463A37.234,37.234,0,0,1,146.863,162.67Z" transform="translate(-104.237 -147.662)" fill="#78b360"/>
                  <path id="Path_3" data-name="Path 3" d="M74.472,150.523A55.03,55.03,0,0,0,92.621,173.4q-1.028.046-2.065.048A56.066,56.066,0,0,1,72.891,149.6Q73.677,150.087,74.472,150.523Z" transform="translate(-72.521 -140.536)" fill="#78b360"/>
                  <path id="Path_4" data-name="Path 4" d="M112.563,133.264a33.792,33.792,0,0,1-34.917,5.7,34.558,34.558,0,0,1-5.639-2.958q.361.98.757,1.946,1.016,2.479,2.264,4.856a5.39,5.39,0,0,0,1.57.472c1.67.183,2.261-.893,1.721-2.676a34.724,34.724,0,0,0,35.623-7.018,7.5,7.5,0,0,0,5.425-1.818,27.455,27.455,0,0,0,10.606-.51c-.38,1.657.152,2.8,1.578,2.89A46.418,46.418,0,0,1,95.3,159.2a50.135,50.135,0,0,0-8.718-3.039,21.524,21.524,0,0,0-2.192-.416q1.893,1.952,3.986,3.73.816.693,1.662,1.357a47.926,47.926,0,0,0,7.277-.568A47.308,47.308,0,0,0,132.9,133.948q1-2.112,1.786-4.311.3-.854.577-1.719-.666.333-1.336.625a27.11,27.11,0,0,1-3.448,1.231,26.608,26.608,0,0,1-13.247.31q-.3-.071-.6-.148t-.6-.16A32.9,32.9,0,0,1,112.563,133.264Z" transform="translate(-72.008 -127.917)" fill="#78b360"/>
                  <path id="Path_6" data-name="Path 6" d="M80.347,155.319q-1.354-.567-2.691-1.263.693,1.547,1.48,3.051C79.146,157.122,80.9,157.5,80.347,155.319Z" transform="translate(-75.295 -143.129)" fill="#5e8f47"/>
                  <path id="Path_7" data-name="Path 7" d="M115.706,200.18q-1.661.135-3.348.151-1.368-1.084-2.657-2.246a25.613,25.613,0,0,1,6.005,2.1Z" transform="translate(-93.944 -168.753)" fill="#5e8f47"/>
                  <path id="Path_8" data-name="Path 8" d="M174.192,137.355q.833-.821,1.6-1.689,1.013.268,2.061.462A5.373,5.373,0,0,1,174.192,137.355Z" transform="translate(-131.477 -132.426)" fill="#5e8f47"/>
                  <path id="Path_9" data-name="Path 9" d="M214.219,136.144q.624-1.337,1.16-2.71-1.136.438-2.277.767C213.116,134.193,212.566,136,214.219,136.144Z" transform="translate(-154.078 -131.127)" fill="#5e8f47"/>
                </g>
              </g>
              <path id="Path_298" data-name="Path 298" d="M-1600.37,1003.83l.836,12.206s8.862,4.96,13.432,2.285,1.059-10.144,1.059-10.144Z" transform="translate(1716.068 -924.886)" fill="#fbbea1"/>
              <path id="Path_299" data-name="Path 299" d="M-1600.28,1005.64a24.7,24.7,0,0,0,10.172,4.765c5.462.892,5.88.167,5.88.167l-.752-3.344-15.571-4.076Z" transform="translate(1716.175 -924.489)" fill="#e98f66"/>
              <path id="Path_300" data-name="Path 300" d="M-1591.19,879.581s-3.678,13.822-1.338,24.746,6.256,22.419-6.563,26.99-31.435-2.341-36.116-17.055-9.823-29.442,5-37.245S-1591.19,879.581-1591.19,879.581Z" transform="translate(1739.144 -849.388)" fill="#fbbea1"/>
              <path id="Path_301" data-name="Path 301" d="M-1651.35,861.662c-1.463,8.124,4.013,10.7,0,16.721s-23.632-3.79-23.855-22.963,6.577-30.432,21.849-36.785,34-4.682,44.588,6.911,5.016,22.294,2.675,24.078-9.963,3.247-21,2.243S-1649.89,853.538-1651.35,861.662Z" transform="translate(1759.627 -814.971)" fill="#363435"/>
              <circle id="Ellipse_30" data-name="Ellipse 30" cx="2.666" cy="2.666" r="2.666" transform="translate(115.598 51.644)" fill="#363435"/>
              <ellipse id="Ellipse_31" data-name="Ellipse 31" cx="3.199" cy="2.666" rx="3.199" ry="2.666" transform="translate(137.992 49.512)" fill="#363435"/>
              <path id="Path_302" data-name="Path 302" d="M-1600,918.765a12,12,0,0,1,4.7-3.9,10.753,10.753,0,0,1,5.894,0" transform="translate(1715.854 -872.855)" fill="none" stroke="#363435" stroke-linecap="round" stroke-linejoin="round" stroke-width="2"/>
              <path id="Path_303" data-name="Path 303" d="M0,3.1A8.57,8.57,0,0,1,3.352.309a7.678,7.678,0,0,1,4.208,0" transform="translate(138.477 38.374) rotate(11)" fill="none" stroke="#363435" stroke-linecap="round" stroke-linejoin="round" stroke-width="2"/>
              <path id="Path_304" data-name="Path 304" d="M-1574.67,979.7a6.509,6.509,0,0,0,5.086,3.678,8.632,8.632,0,0,0,6.911-2.062" transform="translate(1701.111 -910.841)" fill="none" stroke="#363435" stroke-linecap="round" stroke-linejoin="round" stroke-width="1"/>
              <g id="Group_320" data-name="Group 320" transform="translate(73.289 91.636) rotate(98)">
                <g id="Group_2-2" data-name="Group 2">
                  <path id="Path_1-2" data-name="Path 1" d="M63.252,32.911C57.859,14.827,39.988.028,18.035,0A56,56,0,0,0,3.344,17.414,56.786,56.786,0,0,0,0,24.822,34.2,34.2,0,0,1,9.53,20.53,33.778,33.778,0,0,1,44.02,31.052a26.652,26.652,0,0,1,19.232,1.859Z" fill="#99c97a"/>
                  <path id="Path_2-2" data-name="Path 2" d="M19.477,9.988c4.413-1.069,5.48-4.357.9-7.6C15.813-.89,7.1-.758,2.725,2.569c-4.395,3.3-3.137,6.445,1.369,7.463a37.234,37.234,0,0,0,15.383-.044Z" transform="translate(23.149 7.915)" fill="#78b360"/>
                  <path id="Path_3-2" data-name="Path 3" d="M1.581,22.924A55.03,55.03,0,0,1,19.73.048Q18.7,0,17.665,0A56.067,56.067,0,0,0,0,23.846Q.786,23.36,1.581,22.924Z" transform="translate(0.37)" fill="#78b360"/>
                  <path id="Path_4-2" data-name="Path 4" d="M40.555,27.564a33.792,33.792,0,0,0-34.917-5.7A34.558,34.558,0,0,0,0,24.82q.361-.98.757-1.946Q1.773,20.4,3.021,18.018a5.39,5.39,0,0,1,1.57-.472c1.67-.183,2.261.893,1.721,2.676A34.724,34.724,0,0,1,41.937,27.24a7.5,7.5,0,0,1,5.425,1.818,27.455,27.455,0,0,1,10.606.51c-.38-1.657.152-2.8,1.578-2.89A46.418,46.418,0,0,0,23.3,1.633a50.135,50.135,0,0,1-8.718,3.039,21.529,21.529,0,0,1-2.192.416q1.893-1.953,3.986-3.73Q17.188.664,18.034,0a47.926,47.926,0,0,1,7.277.568A47.308,47.308,0,0,1,60.888,26.88q1,2.112,1.786,4.311.305.854.577,1.719-.666-.333-1.336-.625a27.116,27.116,0,0,0-3.448-1.231,26.607,26.607,0,0,0-13.247-.31q-.3.071-.6.148t-.6.16a32.9,32.9,0,0,0-3.465-3.488Z" fill="#78b360"/>
                  <path id="Path_6-2" data-name="Path 6" d="M2.691,1.822Q1.337,2.389,0,3.085.693,1.538,1.48.034C1.49.019,3.249-.358,2.691,1.822Z" transform="translate(2.361 18.899)" fill="#5e8f47"/>
                  <path id="Path_7-2" data-name="Path 7" d="M6.005.151Q4.344.017,2.657,0,1.289,1.084,0,2.246A25.613,25.613,0,0,0,6.005.151Z" transform="translate(15.757 1.333)" fill="#5e8f47"/>
                  <path id="Path_8-2" data-name="Path 8" d="M0,.006Q.833.827,1.6,1.7q1.013-.268,2.061-.462A5.373,5.373,0,0,0,0,.006Z" transform="translate(42.715 27.977)" fill="#5e8f47"/>
                  <path id="Path_9-2" data-name="Path 9" d="M1.194,0q.624,1.337,1.16,2.71Q1.217,2.272.077,1.943C.091,1.951-.459.14,1.194,0Z" transform="translate(58.948 27.894)" fill="#5e8f47"/>
                </g>
              </g>
            </g>
            <g id="Group_9" data-name="Group 9" transform="translate(143.488 179.84)">
              <g id="Group_8" data-name="Group 8">
                <path id="Path_20" data-name="Path 20" d="M215.842,344.655c-8.251,16.456-31.683,18.53-43.574,2.818q4.816-3.228,9.7-6.4,1.751-1.137,3.51-2.267a13.42,13.42,0,0,0,3.3,4.588c5.8,5.208,15.627,4.947,21.533-2.118Q213.07,343.025,215.842,344.655Z" transform="translate(-172.267 -338.805)" fill="#99c97a"/>
                <path id="Path_21" data-name="Path 21" d="M218.5,360.311c.54,1.807-2.494,4.983-7.186,5.3-4.717.3-7.523-2.867-6.265-5.224,1.232-2.393,4.365-3.252,7.245-3.041C215.2,357.648,217.986,358.463,218.5,360.311Z" transform="translate(-188.002 -347.771)" fill="#78b360"/>
                <path id="Path_22" data-name="Path 22" d="M185.482,340.277q-6.079,4.417-12.044,8.918-.6-.7-1.171-1.45,6.323-4.235,12.759-8.378Q185.24,339.835,185.482,340.277Z" transform="translate(-172.267 -339.077)" fill="#78b360"/>
                <path id="Path_23" data-name="Path 23" d="M207.61,343.857c-6.531,4.937-15.64,3.859-20.361-2.1a13.585,13.585,0,0,1-1.773-2.952l-.9.581q-1.157.746-2.312,1.5a3.675,3.675,0,0,0,.73.939,2.99,2.99,0,0,0,3.446.528c5.15,6.307,14.884,7.242,21.616,1.818.659.246,1.767-.1,2.793-1.113q1.445,1.118,2.9,2.2a9.87,9.87,0,0,0-1.455,3.891c-8.64,10.008-24.446,11.2-35.038,2.138.38-1.2-.038-2.827-.941-4.519a14.057,14.057,0,0,0-.872-1.406q-1.142.758-2.282,1.519l-.889.6a27.714,27.714,0,0,0,4.466,4.68c10.951,9.039,26.967,7.7,35.736-2.44A24.364,24.364,0,0,0,215,346.188q.441-.743.837-1.531l-.376-.222q-.482-.285-.963-.573-1.43-.858-2.856-1.748l-.959-.6-.187-.119-.186-.118a16.5,16.5,0,0,1-2.7,2.58Z" transform="translate(-172.267 -338.805)" fill="#78b360"/>
                <g id="Group_7" data-name="Group 7" transform="translate(20.571 11.02)">
                  <path id="Path_24" data-name="Path 24" d="M215.077,360.178l.088.006a.257.257,0,0,1,.256.243q-.027.2-.054.395a2.236,2.236,0,0,1,.926.355c.127.084.19.148.186.2l-.006.069c-.007.1-.129.168-.367.2a.819.819,0,0,1-.432-.221,1.351,1.351,0,0,0-.369-.141q-.1.71-.19,1.419a2.351,2.351,0,0,1,1.223.6.854.854,0,0,1,.265.6c-.029.551-.568,1.019-1.679,1.313l-.138.015c-.017.13-.034.26-.05.391a.489.489,0,0,1-.454.237c-.294-.029-.43-.109-.41-.228l.053-.324a2.873,2.873,0,0,0-.495-.071,2.125,2.125,0,0,1-1.264-.669v-.075a.435.435,0,0,1,.461-.194,1.044,1.044,0,0,1,.534.312,2.331,2.331,0,0,0,.846.228q.148-.9.3-1.8a1.6,1.6,0,0,1-.856-.416.794.794,0,0,1-.327-.809l.021-.089c.1-.4.478-.673,1.116-.855a1.757,1.757,0,0,1,.424-.061q.037-.218.075-.436a.334.334,0,0,1,.317-.184Zm-1.242,1.675-.02.1c-.053.259.127.489.556.666q.109-.644.219-1.29c-.449.106-.7.276-.755.524Zm1.211,1.381-.2,1.574h.022c.6-.2.9-.454.925-.738l.011-.119c.021-.292-.236-.518-.758-.717Z" transform="translate(-212.163 -360.177)" fill="#3d5b2e"/>
                </g>
                <path id="Path_25" data-name="Path 25" d="M196.657,343.157a14.376,14.376,0,0,1-.914-1.423l-1.409,1.027a2.085,2.085,0,0,0,2.323.4Z" transform="translate(-182.956 -340.224)" fill="#5e8f47"/>
                <path id="Path_26" data-name="Path 26" d="M178.162,358.333a26.586,26.586,0,0,1-2-2.112l1.388-1.042a4.421,4.421,0,0,1,.612,3.154Z" transform="translate(-174.155 -346.736)" fill="#5e8f47"/>
                <path id="Path_27" data-name="Path 27" d="M242.87,346.994a17,17,0,0,0,1.283-1.27l.6.471C244.767,346.2,243.725,347.2,242.87,346.994Z" transform="translate(-206.465 -342.156)" fill="#5e8f47"/>
                <path id="Path_28" data-name="Path 28" d="M251.4,354.464a23.944,23.944,0,0,0,1.556-2.262l-.608-.452a7.551,7.551,0,0,0-.948,2.714Z" transform="translate(-210.599 -345.075)" fill="#5e8f47"/>
              </g>
            </g>
            <g id="Group_396" data-name="Group 396" transform="translate(122.041 86.814)">
              <g id="Group_395" data-name="Group 395">
                <path id="Path_759" data-name="Path 759" d="M846.087,754.4,831.6,829.32a2.47,2.47,0,0,0,2.425,2.938h7.643Z" transform="translate(-831.55 -749.859)" fill="#4aa3ff"/>
                <path id="Path_766" data-name="Path 766" d="M903.232,747.7l-9.606,73.559a4.074,4.074,0,0,0,4.04,4.6h14.091l-7.945-78.428Z" transform="translate(-888.521 -743.458)" fill="#f5f5f5"/>
                <path id="Path_767" data-name="Path 767" d="M963.135,750.69l-4.3,73.091a4.789,4.789,0,0,0,4.781,5.071h21.016Z" transform="translate(-948.424 -746.452)" fill="#ebebeb"/>
                <path id="Path_768" data-name="Path 768" d="M1009.56,757.99l2.091,72.494a4.789,4.789,0,0,0,4.781,5.071h21.016Z" transform="translate(-995.01 -753.155)" fill="#d8d8d8"/>
                <path id="Path_769" data-name="Path 769" d="M1119.71,825.252h-82.863a4.284,4.284,0,0,1-4.214-3.514l-12.609-68.954a5.1,5.1,0,0,1,5.015-6.015h81.887a4.284,4.284,0,0,1,4.214,3.514l12.78,69.917a4.284,4.284,0,0,1-4.21,5.052Z" transform="translate(-1004.538 -742.852)" fill="#fff"/>
                <path id="Path_770" data-name="Path 770" d="M1011.99,761.74h91.629l-2.349-13.019a2.372,2.372,0,0,0-2.334-1.951h-88.754a.777.777,0,0,0-.764.916Z" transform="translate(-994.865 -742.852)" fill="#4aa3ff"/>
                <g id="Group_388" data-name="Group 388" transform="translate(15.293)">
                  <g id="Group_375" data-name="Group 375">
                    <g id="Group_374" data-name="Group 374">
                      <path id="Path_771" data-name="Path 771" d="M1022.62,698.84a3.976,3.976,0,0,0-3.972,3.972h.763a3.208,3.208,0,1,1,3.393,3.2v.763a3.929,3.929,0,0,0,1.015-.18,3.972,3.972,0,0,0-1.2-7.76Z" transform="translate(-1018.65 -698.84)" fill="#fff"/>
                    </g>
                    <path id="Path_772" data-name="Path 772" d="M1062.95,781.319a.882.882,0,0,1-.031.23.861.861,0,1,1-.149-.754.841.841,0,0,1,.18.524Z" transform="translate(-1057.75 -773.789)" fill="#fff"/>
                  </g>
                  <g id="Group_377" data-name="Group 377" transform="translate(14.242)">
                    <g id="Group_376" data-name="Group 376">
                      <path id="Path_773" data-name="Path 773" d="M1196.87,698.84a3.976,3.976,0,0,0-3.972,3.972h.763a3.21,3.21,0,1,1,3.393,3.2v.763a3.972,3.972,0,0,0-.185-7.94Z" transform="translate(-1192.9 -698.84)" fill="#fff"/>
                    </g>
                    <path id="Path_774" data-name="Path 774" d="M1237.19,781.319a.871.871,0,0,1-.031.23.86.86,0,1,1-.148-.754.847.847,0,0,1,.179.524Z" transform="translate(-1231.991 -773.789)" fill="#fff"/>
                  </g>
                  <g id="Group_379" data-name="Group 379" transform="translate(28.486)">
                    <g id="Group_378" data-name="Group 378">
                      <path id="Path_775" data-name="Path 775" d="M1371.13,698.84a3.976,3.976,0,0,0-3.972,3.972h.763a3.21,3.21,0,1,1,3.393,3.2v.763a3.972,3.972,0,0,0-.185-7.94Z" transform="translate(-1367.16 -698.84)" fill="#fff"/>
                    </g>
                    <path id="Path_776" data-name="Path 776" d="M1411.45,781.319a.882.882,0,0,1-.031.23.86.86,0,1,1-.148-.754.844.844,0,0,1,.179.524Z" transform="translate(-1406.251 -773.789)" fill="#fff"/>
                  </g>
                  <g id="Group_381" data-name="Group 381" transform="translate(42.728)">
                    <g id="Group_380" data-name="Group 380">
                      <path id="Path_777" data-name="Path 777" d="M1545.38,698.84a3.975,3.975,0,0,0-3.971,3.972h.763a3.208,3.208,0,1,1,3.393,3.2v.763a3.972,3.972,0,0,0-.185-7.94Z" transform="translate(-1541.41 -698.84)" fill="#fff"/>
                    </g>
                    <path id="Path_778" data-name="Path 778" d="M1585.71,781.319a.882.882,0,0,1-.031.23.861.861,0,1,1-.149-.754A.842.842,0,0,1,1585.71,781.319Z" transform="translate(-1580.509 -773.789)" fill="#fff"/>
                  </g>
                  <g id="Group_383" data-name="Group 383" transform="translate(56.97)">
                    <g id="Group_382" data-name="Group 382">
                      <path id="Path_779" data-name="Path 779" d="M1719.63,698.84a3.976,3.976,0,0,0-3.973,3.972h.763a3.208,3.208,0,1,1,3.393,3.2v.763a3.925,3.925,0,0,0,1.015-.18,3.972,3.972,0,0,0-1.2-7.76Z" transform="translate(-1715.66 -698.84)" fill="#fff"/>
                    </g>
                    <path id="Path_780" data-name="Path 780" d="M1759.95,781.319a.877.877,0,0,1-.031.23.861.861,0,1,1-.149-.754A.84.84,0,0,1,1759.95,781.319Z" transform="translate(-1754.751 -773.789)" fill="#fff"/>
                  </g>
                  <g id="Group_385" data-name="Group 385" transform="translate(71.214)">
                    <g id="Group_384" data-name="Group 384">
                      <path id="Path_781" data-name="Path 781" d="M1893.89,698.84a3.976,3.976,0,0,0-3.972,3.972h.763a3.208,3.208,0,1,1,3.393,3.2v.763a3.972,3.972,0,0,0-.185-7.94Z" transform="translate(-1889.92 -698.84)" fill="#fff"/>
                    </g>
                    <path id="Path_782" data-name="Path 782" d="M1934.21,781.319a.882.882,0,0,1-.031.23.861.861,0,1,1-.149-.754.842.842,0,0,1,.18.524Z" transform="translate(-1929.011 -773.789)" fill="#fff"/>
                  </g>
                  <g id="Group_387" data-name="Group 387" transform="translate(85.456)">
                    <g id="Group_386" data-name="Group 386">
                      <path id="Path_783" data-name="Path 783" d="M2068.14,698.84a3.976,3.976,0,0,0-3.972,3.972h.762a3.21,3.21,0,1,1,3.393,3.205v.763a3.932,3.932,0,0,0,1.015-.18,3.972,3.972,0,0,0-1.2-7.76Z" transform="translate(-2064.17 -698.84)" fill="#fff"/>
                    </g>
                    <path id="Path_784" data-name="Path 784" d="M2108.46,781.319a.882.882,0,0,1-.031.23.861.861,0,1,1-.148-.754A.844.844,0,0,1,2108.46,781.319Z" transform="translate(-2103.261 -773.789)" fill="#fff"/>
                  </g>
                </g>
                <g id="Group_389" data-name="Group 389" transform="translate(27.088 26.611)">
                  <path id="Path_785" data-name="Path 785" d="M1614,1155.23h-4.632a1.241,1.241,0,0,1-1.161-.974l-.893-4.632a.782.782,0,0,1,.786-.974h4.632a1.242,1.242,0,0,1,1.162.974l.893,4.632a.782.782,0,0,1-.787.974Z" transform="translate(-1570.974 -1138.496)" fill="#afcdfb"/>
                  <path id="Path_786" data-name="Path 786" d="M1757,1155.23h-4.632a1.242,1.242,0,0,1-1.161-.974l-.893-4.632a.782.782,0,0,1,.786-.974h4.632a1.242,1.242,0,0,1,1.162.974l.893,4.632a.781.781,0,0,1-.787.974Z" transform="translate(-1702.285 -1138.496)" fill="#afcdfb"/>
                  <path id="Path_787" data-name="Path 787" d="M1900.01,1155.23h-4.632a1.242,1.242,0,0,1-1.161-.974l-.893-4.632a.782.782,0,0,1,.785-.974h4.632a1.242,1.242,0,0,1,1.162.974l.893,4.632a.782.782,0,0,1-.786.974Z" transform="translate(-1833.606 -1138.496)" fill="#78acea"/>
                  <path id="Path_788" data-name="Path 788" d="M1185,1155.23h-4.632a1.242,1.242,0,0,1-1.161-.974l-.893-4.632a.782.782,0,0,1,.785-.974h4.632a1.242,1.242,0,0,1,1.161.974l.893,4.632a.782.782,0,0,1-.785.974Z" transform="translate(-1177.038 -1138.496)" fill="#afcdfb"/>
                  <path id="Path_789" data-name="Path 789" d="M1165.84,1027.25h-1.99a.534.534,0,0,1-.5-.418l-.384-1.99a.336.336,0,0,1,.338-.418h1.99a.534.534,0,0,1,.5.418l.384,1.99a.336.336,0,0,1-.338.418Z" transform="translate(-1162.957 -1024.42)" fill="#f7863b"/>
                  <path id="Path_790" data-name="Path 790" d="M1328,1155.23h-4.632a1.242,1.242,0,0,1-1.161-.974l-.893-4.632a.782.782,0,0,1,.785-.974h4.632a1.242,1.242,0,0,1,1.161.974l.893,4.632a.782.782,0,0,1-.785.974Z" transform="translate(-1308.35 -1138.496)" fill="#afcdfb"/>
                  <path id="Path_791" data-name="Path 791" d="M1471,1155.23h-4.632a1.242,1.242,0,0,1-1.161-.974l-.893-4.632a.782.782,0,0,1,.786-.974h4.632a1.242,1.242,0,0,1,1.161.974l.894,4.632a.782.782,0,0,1-.787.974Z" transform="translate(-1439.662 -1138.496)" fill="#afcdfb"/>
                  <path id="Path_792" data-name="Path 792" d="M2043.01,1155.23h-4.632a1.242,1.242,0,0,1-1.161-.974l-.893-4.632a.782.782,0,0,1,.786-.974h4.632a1.242,1.242,0,0,1,1.161.974l.893,4.632a.782.782,0,0,1-.786.974Z" transform="translate(-1964.919 -1138.496)" fill="#78acea"/>
                  <path id="Path_793" data-name="Path 793" d="M1590.26,1032.15h-4.632a1.241,1.241,0,0,1-1.161-.973l-.893-4.632a.782.782,0,0,1,.785-.974h4.632a1.241,1.241,0,0,1,1.161.974l.893,4.632a.782.782,0,0,1-.785.973Z" transform="translate(-1549.174 -1025.476)" fill="#afcdfb"/>
                  <path id="Path_794" data-name="Path 794" d="M1733.26,1032.15h-4.632a1.241,1.241,0,0,1-1.161-.973l-.893-4.632a.782.782,0,0,1,.785-.974h4.632a1.241,1.241,0,0,1,1.161.974l.893,4.632a.782.782,0,0,1-.785.973Z" transform="translate(-1680.486 -1025.476)" fill="#afcdfb"/>
                  <path id="Path_795" data-name="Path 795" d="M1876.26,1032.15h-4.632a1.241,1.241,0,0,1-1.161-.973l-.894-4.632a.782.782,0,0,1,.785-.974h4.632a1.242,1.242,0,0,1,1.162.974l.893,4.632a.782.782,0,0,1-.785.973Z" transform="translate(-1811.797 -1025.476)" fill="#78acea"/>
                  <path id="Path_796" data-name="Path 796" d="M2019.27,1032.15h-4.632a1.242,1.242,0,0,1-1.161-.973l-.893-4.632a.782.782,0,0,1,.785-.974H2018a1.241,1.241,0,0,1,1.161.974l.893,4.632a.782.782,0,0,1-.784.973Z" transform="translate(-1943.119 -1025.476)" fill="#78acea"/>
                  <path id="Path_797" data-name="Path 797" d="M1639.17,1285.69h-4.632a1.242,1.242,0,0,1-1.162-.974l-.893-4.632a.782.782,0,0,1,.786-.973h4.632a1.241,1.241,0,0,1,1.161.973l.893,4.632a.782.782,0,0,1-.785.974Z" transform="translate(-1594.086 -1258.293)" fill="#afcdfb"/>
                  <path id="Path_798" data-name="Path 798" d="M1782.17,1285.69h-4.632a1.241,1.241,0,0,1-1.162-.974l-.893-4.632a.782.782,0,0,1,.785-.973h4.632a1.241,1.241,0,0,1,1.161.973l.894,4.632a.782.782,0,0,1-.785.974Z" transform="translate(-1725.398 -1258.293)" fill="#afcdfb"/>
                  <path id="Path_799" data-name="Path 799" d="M1925.17,1285.69h-4.632a1.242,1.242,0,0,1-1.162-.974l-.893-4.632a.782.782,0,0,1,.785-.973h4.632a1.241,1.241,0,0,1,1.161.973l.894,4.632a.782.782,0,0,1-.785.974Z" transform="translate(-1856.71 -1258.293)" fill="#78acea"/>
                  <path id="Path_800" data-name="Path 800" d="M1210.16,1285.69h-4.632a1.242,1.242,0,0,1-1.161-.974l-.893-4.632a.782.782,0,0,1,.786-.973h4.632a1.242,1.242,0,0,1,1.161.973l.893,4.632a.782.782,0,0,1-.786.974Z" transform="translate(-1200.141 -1258.293)" fill="#afcdfb"/>
                  <path id="Path_801" data-name="Path 801" d="M1353.16,1285.69h-4.632a1.241,1.241,0,0,1-1.161-.974l-.893-4.632a.782.782,0,0,1,.786-.973h4.632a1.241,1.241,0,0,1,1.161.973l.893,4.632a.782.782,0,0,1-.786.974Z" transform="translate(-1331.453 -1258.293)" fill="#afcdfb"/>
                  <path id="Path_802" data-name="Path 802" d="M1496.17,1285.69h-4.632a1.242,1.242,0,0,1-1.162-.974l-.893-4.632a.782.782,0,0,1,.785-.973h4.632a1.241,1.241,0,0,1,1.161.973l.894,4.632a.782.782,0,0,1-.785.974Z" transform="translate(-1462.774 -1258.293)" fill="#afcdfb"/>
                  <path id="Path_803" data-name="Path 803" d="M2068.17,1285.69h-4.632a1.242,1.242,0,0,1-1.161-.974l-.893-4.632a.782.782,0,0,1,.785-.973h4.632a1.242,1.242,0,0,1,1.161.973l.893,4.632a.782.782,0,0,1-.785.974Z" transform="translate(-1988.022 -1258.293)" fill="#78acea"/>
                  <path id="Path_804" data-name="Path 804" d="M1664.33,1416.14H1659.7a1.242,1.242,0,0,1-1.161-.974l-.893-4.632a.782.782,0,0,1,.785-.974h4.632a1.242,1.242,0,0,1,1.162.974l.893,4.632a.782.782,0,0,1-.786.974Z" transform="translate(-1617.19 -1378.08)" fill="#afcdfb"/>
                  <path id="Path_805" data-name="Path 805" d="M1807.33,1416.14H1802.7a1.242,1.242,0,0,1-1.161-.974l-.894-4.632a.782.782,0,0,1,.786-.974h4.632a1.242,1.242,0,0,1,1.162.974l.893,4.632a.782.782,0,0,1-.786.974Z" transform="translate(-1748.502 -1378.08)" fill="#afcdfb"/>
                  <path id="Path_806" data-name="Path 806" d="M1950.33,1416.14H1945.7a1.241,1.241,0,0,1-1.161-.974l-.894-4.632a.782.782,0,0,1,.786-.974h4.632a1.241,1.241,0,0,1,1.161.974l.894,4.632a.782.782,0,0,1-.786.974Z" transform="translate(-1879.814 -1378.08)" fill="#78acea"/>
                  <path id="Path_807" data-name="Path 807" d="M1235.33,1416.14H1230.7a1.242,1.242,0,0,1-1.161-.974l-.893-4.632a.782.782,0,0,1,.786-.974h4.632a1.242,1.242,0,0,1,1.161.974l.894,4.632a.783.783,0,0,1-.787.974Z" transform="translate(-1223.254 -1378.08)" fill="#afcdfb"/>
                  <path id="Path_808" data-name="Path 808" d="M1378.33,1416.14H1373.7a1.242,1.242,0,0,1-1.161-.974l-.893-4.632a.782.782,0,0,1,.785-.974h4.632a1.242,1.242,0,0,1,1.161.974l.893,4.632a.782.782,0,0,1-.785.974Z" transform="translate(-1354.566 -1378.08)" fill="#afcdfb"/>
                  <path id="Path_809" data-name="Path 809" d="M1521.33,1416.14H1516.7a1.242,1.242,0,0,1-1.161-.974l-.893-4.632a.782.782,0,0,1,.785-.974h4.632a1.242,1.242,0,0,1,1.161.974l.893,4.632a.782.782,0,0,1-.785.974Z" transform="translate(-1485.878 -1378.08)" fill="#afcdfb"/>
                  <path id="Path_810" data-name="Path 810" d="M2093.34,1416.14h-4.64a1.242,1.242,0,0,1-1.161-.974l-.893-4.632a.782.782,0,0,1,.786-.974h4.632a1.241,1.241,0,0,1,1.162.974l.893,4.632a.782.782,0,0,1-.779.974Z" transform="translate(-2011.135 -1378.08)" fill="#78acea"/>
                  <path id="Path_811" data-name="Path 811" d="M1688.07,1539.23h-4.632a1.242,1.242,0,0,1-1.161-.974l-.893-4.632a.782.782,0,0,1,.786-.974h4.632a1.242,1.242,0,0,1,1.161.974l.893,4.632a.782.782,0,0,1-.786.974Z" transform="translate(-1638.99 -1491.109)" fill="#afcdfb"/>
                  <path id="Path_812" data-name="Path 812" d="M1831.08,1539.23h-4.632a1.241,1.241,0,0,1-1.161-.974l-.893-4.632a.782.782,0,0,1,.786-.974h4.632a1.242,1.242,0,0,1,1.162.974l.893,4.632a.782.782,0,0,1-.787.974Z" transform="translate(-1770.311 -1491.109)" fill="#f7863b"/>
                  <path id="Path_813" data-name="Path 813" d="M1974.08,1539.23h-4.632a1.242,1.242,0,0,1-1.162-.974l-.893-4.632a.782.782,0,0,1,.786-.974h4.632a1.242,1.242,0,0,1,1.162.974l.893,4.632a.782.782,0,0,1-.786.974Z" transform="translate(-1901.622 -1491.109)" fill="#78acea"/>
                  <path id="Path_814" data-name="Path 814" d="M1259.07,1539.23h-4.632a1.241,1.241,0,0,1-1.161-.974l-.894-4.632a.783.783,0,0,1,.786-.974h4.632a1.242,1.242,0,0,1,1.161.974l.893,4.632a.782.782,0,0,1-.785.974Z" transform="translate(-1245.054 -1491.109)" fill="#afcdfb"/>
                  <path id="Path_815" data-name="Path 815" d="M1402.07,1539.23h-4.632a1.241,1.241,0,0,1-1.161-.974l-.894-4.632a.782.782,0,0,1,.785-.974h4.632a1.242,1.242,0,0,1,1.161.974l.893,4.632a.782.782,0,0,1-.784.974Z" transform="translate(-1376.366 -1491.109)" fill="#afcdfb"/>
                  <path id="Path_816" data-name="Path 816" d="M1545.07,1539.23h-4.632a1.241,1.241,0,0,1-1.161-.974l-.893-4.632a.782.782,0,0,1,.786-.974h4.632a1.242,1.242,0,0,1,1.161.974l.893,4.632a.782.782,0,0,1-.786.974Z" transform="translate(-1507.678 -1491.109)" fill="#afcdfb"/>
                  <path id="Path_817" data-name="Path 817" d="M1228.42,1029.26h-12.271a.33.33,0,0,1-.329-.328h0a.33.33,0,0,1,.329-.329h12.271a.33.33,0,0,1,.329.329h0A.33.33,0,0,1,1228.42,1029.26Z" transform="translate(-1211.499 -1028.258)" fill="#afcdfb"/>
                  <path id="Path_818" data-name="Path 818" d="M1232.98,1047.45h-12.272a.33.33,0,0,1-.329-.329h0a.33.33,0,0,1,.329-.329h12.271a.33.33,0,0,1,.329.329h0a.328.328,0,0,1-.328.329Z" transform="translate(-1215.687 -1044.962)" fill="#afcdfb"/>
                </g>
                <g id="Group_390" data-name="Group 390" transform="translate(26.009 15.29)">
                  <path id="Path_819" data-name="Path 819" d="M1154.6,887.164h-4.211a.629.629,0,0,1-.627-.627h0a.629.629,0,0,1,.627-.627h4.211a.629.629,0,0,1,.627.627h0A.629.629,0,0,1,1154.6,887.164Z" transform="translate(-1149.76 -885.91)" fill="#fff"/>
                  <path id="Path_820" data-name="Path 820" d="M1295.97,887.164h-4.211a.629.629,0,0,1-.627-.627h0a.628.628,0,0,1,.627-.627h4.211a.629.629,0,0,1,.627.627h0a.629.629,0,0,1-.627.627Z" transform="translate(-1279.575 -885.91)" fill="#fff"/>
                  <path id="Path_821" data-name="Path 821" d="M1437.34,887.164h-4.211a.628.628,0,0,1-.627-.627h0a.628.628,0,0,1,.627-.627h4.211a.629.629,0,0,1,.627.627h0A.629.629,0,0,1,1437.34,887.164Z" transform="translate(-1409.39 -885.91)" fill="#fff"/>
                  <path id="Path_822" data-name="Path 822" d="M1578.7,887.164h-4.211a.629.629,0,0,1-.627-.627h0a.629.629,0,0,1,.627-.627h4.211a.629.629,0,0,1,.627.627h0a.628.628,0,0,1-.627.627Z" transform="translate(-1539.196 -885.91)" fill="#fff"/>
                  <path id="Path_823" data-name="Path 823" d="M1720.07,887.164h-4.211a.629.629,0,0,1-.627-.627h0a.629.629,0,0,1,.627-.627h4.211a.629.629,0,0,1,.627.627h0A.629.629,0,0,1,1720.07,887.164Z" transform="translate(-1669.011 -885.91)" fill="#fff"/>
                  <path id="Path_824" data-name="Path 824" d="M1861.44,887.164h-4.211a.629.629,0,0,1-.627-.627h0a.629.629,0,0,1,.627-.627h4.211a.629.629,0,0,1,.627.627h0A.629.629,0,0,1,1861.44,887.164Z" transform="translate(-1798.826 -885.91)" fill="#fff"/>
                  <path id="Path_825" data-name="Path 825" d="M2002.81,887.164h-4.21a.629.629,0,0,1-.627-.627h0a.629.629,0,0,1,.627-.627h4.211a.629.629,0,0,1,.627.627h0a.629.629,0,0,1-.628.627Z" transform="translate(-1928.641 -885.91)" fill="#fff"/>
                </g>
                <g id="Group_391" data-name="Group 391" transform="translate(59.881 25.477)">
                  <path id="Path_826" data-name="Path 826" d="M1705.74,1015.16a2.194,2.194,0,0,1-1.976-.868c-.708-1.1-.161-2.638,1.623-4.576a22.708,22.708,0,0,1,2.841-2.548.135.135,0,1,1,.16.217c-.06.043-5.928,4.388-4.4,6.763a2.341,2.341,0,0,0,2.307.711,12.625,12.625,0,0,0,5.071-2.094,8.655,8.655,0,0,0,3.443-3.659c.266-.75.184-1.28-.245-1.578a4.164,4.164,0,0,0-3.1,0,9.769,9.769,0,0,0-3.49,1.726.135.135,0,1,1-.174-.205,10.065,10.065,0,0,1,3.592-1.779,4.325,4.325,0,0,1,3.327.039c.373.257.735.794.346,1.888a8.9,8.9,0,0,1-3.548,3.792,12.884,12.884,0,0,1-5.189,2.137,5.371,5.371,0,0,1-.588.034Z" transform="translate(-1703.461 -1006.975)" fill="#c65447"/>
                </g>
              </g>
            </g>
            <path id="Path_312" data-name="Path 312" d="M11.2,0,22.071,21.235l36.451-8.026s1.5-3.01,7.357-3.177,10.032,2.341,13.377.836,6.521-5.016,7.357-2.174-6.02,10.032-10.2,10.7-10.7-2.675-13.544-1.672S25.917,37.789,19.73,37.789,0,10.032,0,10.032Z" transform="matrix(0.985, 0.174, -0.174, 0.985, 106.236, 143.525)" fill="#fbc0a2"/>
            <path id="Path_313" data-name="Path 313" d="M33.558,44.6a42.614,42.614,0,0,1-8.026,8.36,15.645,15.645,0,0,1-10.868,3.679S-13.991,9.594,8.812.962,33.558,44.6,33.558,44.6Z" transform="matrix(0.985, 0.174, -0.174, 0.985, 93.925, 98.212)" fill="#f68634"/>
            <g id="Group_279" data-name="Group 279" transform="translate(231 53.515)">
              <g id="Group_278" data-name="Group 278">
                <path id="Path_219" data-name="Path 219" d="M553.053,120.668c9.058-6.216,11.912-14.447,12.288-19.317a9.069,9.069,0,0,1-8.536,2.123,7.2,7.2,0,0,1-2.406-1.243,15.373,15.373,0,0,1-2.449,2.365c-4.083,3.187-11.394,5.714-20.637,3.1a23.939,23.939,0,0,0,21.74,12.972Z" transform="translate(-531.313 -101.351)" fill="#99c97a"/>
                <path id="Path_220" data-name="Path 220" d="M570.541,124.094c4.078,1.337,9.183-.8,10.324-2.729,1.222-1.928-.807-2.228-3.835-2.485-3.069-.207-6.4-.587-8.61.3C566.217,119.958,566.477,122.772,570.541,124.094Z" transform="translate(-552.108 -111.4)" fill="#78b360"/>
                <path id="Path_221" data-name="Path 221" d="M586.386,102.842c2.688,1.945,7.212,2.153,10.952-1.009.02-.163.038-.324.055-.482-3.651,3.166-8.072,2.979-10.672,1.083Q586.561,102.637,586.386,102.842Z" transform="translate(-563.365 -101.351)" fill="#78b360"/>
                <path id="Path_222" data-name="Path 222" d="M535.086,108.513c8.329,1.17,14.587-1.692,17.967-4.855a14.7,14.7,0,0,0,1.348-1.428q.264.209.553.4a7.27,7.27,0,0,0,1.625.776,1.426,1.426,0,0,1-.376.4,2.7,2.7,0,0,1-2.473.237c-3.23,3.328-9.4,6.537-17.843,5.851.81,1.538.981,2.641.148,3.063a23.14,23.14,0,0,0,11.878,6.609c1.676-.38,3.981-.61,6.19-.876,6.4-4.844,9.246-10.731,10.151-15.008-.967.472-1.634.312-1.759-.131a.809.809,0,0,1,.005-.427,10.063,10.063,0,0,0,2.066-1.155q.394-.284.776-.616c-.058.562-.14,1.163-.253,1.8a26.412,26.412,0,0,1-9.2,15.338q-.944.811-2,1.586-.41.3-.837.6-.9.014-1.8-.038a24.3,24.3,0,0,1-4.532-.7,23.756,23.756,0,0,1-11.589-6.83,24.383,24.383,0,0,1-2.877-3.76q-.248-.4-.484-.812t-.456-.832a28.261,28.261,0,0,0,3.772.808Z" transform="translate(-531.314 -101.351)" fill="#78b360"/>
                <path id="Path_224" data-name="Path 224" d="M585.66,106.073q.316-.342.6-.684a7.526,7.526,0,0,0,1.048.558,1.746,1.746,0,0,1-1.648.126Z" transform="translate(-562.942 -103.701)" fill="#5e8f47"/>
                <path id="Path_225" data-name="Path 225" d="M608.641,104.807q.087-.427.153-.832a10.486,10.486,0,0,1-1.356.81C607.439,104.761,607.5,105.326,608.641,104.807Z" transform="translate(-575.617 -102.878)" fill="#5e8f47"/>
                <path id="Path_226" data-name="Path 226" d="M537.932,121.241q-.864-.1-1.754-.255a23.67,23.67,0,0,0,1.783,2.383C537.986,123.36,538.9,123.133,537.932,121.241Z" transform="translate(-534.144 -112.778)" fill="#5e8f47"/>
                <path id="Path_227" data-name="Path 227" d="M578.482,143.885q-.664.481-1.373.943a23.8,23.8,0,0,1-2.889-.27A23.683,23.683,0,0,1,578.482,143.885Z" transform="translate(-556.284 -126.105)" fill="#5e8f47"/>
              </g>
            </g>
            <g id="Group_310" data-name="Group 310" transform="translate(49.3 12.423)">
              <g id="Group_288" data-name="Group 288" transform="translate(191.723 104.881)">
                <g id="Group_283" data-name="Group 283" transform="translate(3.484 0.964)">
                  <path id="Path_228" data-name="Path 228" d="M497.393,294.663l-1.234,2.016,18.4,11.159,1.247-2.008c1.907-2.99-.668-7.913-5.754-11S499.3,291.674,497.393,294.663Z" transform="translate(-496.159 -292.47)" fill="#e49b25"/>
                  <g id="Group_282" data-name="Group 282">
                    <g id="Group_281" data-name="Group 281" clip-path="url(#clip-path-2)">
                      <g id="Group_280" data-name="Group 280" transform="translate(-0.165 -3.414)">
                        <path id="Path_229" data-name="Path 229" d="M545.021,311.324l-.457-.277-4.7,7.362.457.277Z" transform="translate(-521.431 -299.867)" fill="#ca8220"/>
                        <path id="Path_230" data-name="Path 230" d="M542.184,309.6l-.457-.277-4.7,7.362.457.277Z" transform="translate(-519.78 -298.866)" fill="#ca8220"/>
                        <path id="Path_231" data-name="Path 231" d="M538.947,307.641l-.457-.277-4.7,7.362.457.277Z" transform="translate(-517.896 -297.724)" fill="#ca8220"/>
                        <path id="Path_232" data-name="Path 232" d="M534.907,305.191l-.457-.277-4.7,7.362.457.277Z" transform="translate(-515.544 -296.298)" fill="#ca8220"/>
                        <path id="Path_233" data-name="Path 233" d="M530.465,302.5l-.457-.277-4.7,7.362.457.277Z" transform="translate(-512.96 -294.73)" fill="#ca8220"/>
                        <path id="Path_234" data-name="Path 234" d="M525.623,299.561l-.457-.277-4.7,7.362.457.277Z" transform="translate(-510.141 -293.022)" fill="#ca8220"/>
                        <path id="Path_235" data-name="Path 235" d="M496.221,291.942l4.7-7.362-.457-.277-4.7,7.362Z" transform="translate(-495.764 -284.303)" fill="#ca8220"/>
                        <path id="Path_236" data-name="Path 236" d="M503.755,286.3l-.457-.277-4.7,7.362.457.277Z" transform="translate(-497.415 -285.304)" fill="#ca8220"/>
                        <path id="Path_237" data-name="Path 237" d="M506.993,288.263l-.457-.277-4.7,7.362.457.277Z" transform="translate(-499.299 -286.447)" fill="#ca8220"/>
                        <path id="Path_238" data-name="Path 238" d="M511.033,290.713l-.457-.277-4.7,7.362.457.277Z" transform="translate(-501.65 -287.872)" fill="#ca8220"/>
                        <path id="Path_239" data-name="Path 239" d="M515.474,293.407l-.457-.277-4.7,7.362.457.277Z" transform="translate(-504.235 -289.44)" fill="#ca8220"/>
                        <path id="Path_240" data-name="Path 240" d="M520.317,296.343l-.457-.277-4.7,7.362.457.277Z" transform="translate(-507.053 -291.149)" fill="#ca8220"/>
                      </g>
                    </g>
                  </g>
                </g>
                <ellipse id="Ellipse_26" data-name="Ellipse 26" cx="6.418" cy="10.77" rx="6.418" ry="10.77" transform="matrix(0.508, -0.862, 0.862, 0.508, 0, 11.059)" fill="#f0d05e"/>
                <path id="Path_242" data-name="Path 242" d="M501.1,311.048c-5.085-3.084-7.661-8.007-5.753-11a5.2,5.2,0,0,1,4.034-2.143,5.4,5.4,0,0,0-4.465,2.177c-1.908,2.989.668,7.913,5.754,11a14.509,14.509,0,0,0,8.63,2.318A14.853,14.853,0,0,1,501.1,311.048Z" transform="translate(-491.585 -294.671)" fill="#f3e178"/>
                <path id="Path_243" data-name="Path 243" d="M514.908,312.7c-1.421,2.227-5.789,2.09-9.738-.3s-6.005-6.154-4.584-8.38,5.789-2.09,9.737.3S516.328,310.479,514.908,312.7Z" transform="translate(-494.99 -297.306)" fill="#f3e178"/>
                <path id="Path_244" data-name="Path 244" d="M514.382,312.563c-1.421,2.227-5.789,2.09-9.738-.3s-6.005-6.154-4.584-8.381,5.789-2.09,9.738.3S515.8,310.337,514.382,312.563Z" transform="translate(-494.684 -297.223)" fill="#eaab39"/>
                <path id="Path_245" data-name="Path 245" d="M514.293,316.76c-1.421,2.226-5.789,2.09-9.738-.3-2.663-1.615-4.464-3.85-4.919-5.818.159,2.111,2.058,4.679,5.023,6.478,3.949,2.394,8.317,2.531,9.738.3a3.28,3.28,0,0,0,.334-2.562,3.043,3.043,0,0,1-.438,1.9Z" transform="translate(-494.699 -302.079)" fill="#ca8220"/>
                <path id="Path_248" data-name="Path 248" d="M496.3,294.663l-1.234,2.016.021.013c-.057.077-.122.147-.174.229-1.908,2.989.668,7.913,5.754,11s10.753,3.16,12.661.171c.052-.082.088-.169.133-.254l.008.005,1.247-2.008c1.907-2.99-.668-7.913-5.754-11S498.21,291.674,496.3,294.663Z" transform="translate(-491.585 -291.506)" fill="#ac8846" opacity="0.45"/>
              </g>
              <g id="Group_297" data-name="Group 297" transform="translate(86.095 81.537)">
                <g id="Group_292" data-name="Group 292" transform="translate(0 3.772)">
                  <path id="Path_249" data-name="Path 249" d="M255.771,252.485l.768-2.236-20.384-6.9-.782,2.231c-1.214,3.332,2.368,7.579,8,9.488S254.556,255.816,255.771,252.485Z" transform="translate(-235.137 -243.344)" fill="#e49b25"/>
                  <g id="Group_291" data-name="Group 291">
                    <g id="Group_290" data-name="Group 290" clip-path="url(#clip-path-3)">
                      <g id="Group_289" data-name="Group 289" transform="translate(-2.297 0.035)">
                        <path id="Path_250" data-name="Path 250" d="M229.641,251.633l.507.172,2.99-8.205-.507-.172Z" transform="translate(-229.641 -243.428)" fill="#ca8220"/>
                        <path id="Path_251" data-name="Path 251" d="M232.783,252.7l.507.172,2.99-8.205-.507-.172Z" transform="translate(-231.47 -244.047)" fill="#ca8220"/>
                        <path id="Path_252" data-name="Path 252" d="M236.369,253.912l.507.172,2.99-8.205-.507-.172Z" transform="translate(-233.557 -244.754)" fill="#ca8220"/>
                        <path id="Path_253" data-name="Path 253" d="M240.844,255.428l.507.172,2.99-8.205-.507-.172Z" transform="translate(-236.161 -245.636)" fill="#ca8220"/>
                        <path id="Path_254" data-name="Path 254" d="M245.764,257.094l.507.172,2.99-8.205-.506-.172Z" transform="translate(-239.024 -246.606)" fill="#ca8220"/>
                        <path id="Path_255" data-name="Path 255" d="M251.128,258.912l.507.172,2.99-8.205-.507-.172Z" transform="translate(-242.146 -247.664)" fill="#ca8220"/>
                        <path id="Path_256" data-name="Path 256" d="M281.481,259.976l-2.99,8.2.507.172,2.99-8.2Z" transform="translate(-258.071 -253.058)" fill="#ca8220"/>
                        <path id="Path_257" data-name="Path 257" d="M275.35,267.117l.507.172,2.99-8.2-.507-.172Z" transform="translate(-256.243 -252.439)" fill="#ca8220"/>
                        <path id="Path_258" data-name="Path 258" d="M271.764,265.9l.507.172,2.99-8.2-.507-.172Z" transform="translate(-254.156 -251.732)" fill="#ca8220"/>
                        <path id="Path_259" data-name="Path 259" d="M267.289,264.386l.507.172,2.99-8.2-.507-.172Z" transform="translate(-251.552 -250.85)" fill="#ca8220"/>
                        <path id="Path_260" data-name="Path 260" d="M262.369,262.72l.507.172,2.99-8.205-.507-.172Z" transform="translate(-248.688 -249.88)" fill="#ca8220"/>
                        <path id="Path_261" data-name="Path 261" d="M257.005,260.9l.507.172,2.99-8.205-.5-.167Z" transform="translate(-245.567 -248.822)" fill="#ca8220"/>
                      </g>
                    </g>
                  </g>
                </g>
                <path id="Path_263" data-name="Path 263" d="M245.445,247.307c-5.633-1.908-9.215-6.156-8-9.488s6.764-4.486,12.4-2.578,9.214,6.156,8,9.488S251.077,249.215,245.445,247.307Z" transform="translate(-236.342 -234.321)" fill="#f0d05e"/>
                <path id="Path_264" data-name="Path 264" d="M254.594,235.369c5.633,1.908,9.215,6.156,8,9.488a5.2,5.2,0,0,1-3.474,2.966,5.4,5.4,0,0,0,3.888-3.092c1.214-3.332-2.368-7.58-8-9.488a14.508,14.508,0,0,0-8.923-.388,14.853,14.853,0,0,1,8.509.514Z" transform="translate(-241.508 -234.322)" fill="#f3e178"/>
                <path id="Path_265" data-name="Path 265" d="M242.417,240.947c.9-2.482,5.2-3.3,9.572-1.813s7.2,4.706,6.292,7.187-5.2,3.3-9.572,1.814S241.513,243.429,242.417,240.947Z" transform="translate(-239.276 -236.691)" fill="#f3e178"/>
                <path id="Path_266" data-name="Path 266" d="M242.961,240.972c.9-2.482,5.2-3.3,9.572-1.814s7.2,4.706,6.292,7.188-5.2,3.3-9.572,1.814S242.057,243.453,242.961,240.972Z" transform="translate(-239.592 -236.705)" fill="#eaab39"/>
                <path id="Path_267" data-name="Path 267" d="M243.207,241.593c.9-2.482,5.2-3.3,9.572-1.814,2.95,1,5.192,2.792,6.063,4.614-.613-2.026-3.023-4.122-6.308-5.235-4.374-1.481-8.668-.668-9.572,1.814a3.282,3.282,0,0,0,.229,2.574,3.045,3.045,0,0,1,.016-1.953Z" transform="translate(-239.593 -236.705)" fill="#ca8220"/>
              </g>
              <g id="Group_309" data-name="Group 309" transform="translate(201.103 6)">
                <path id="Path_270" data-name="Path 270" d="M450.96,104.289l-1.476-1.756-19.309,16.223,1.463,1.767c3.923,4.669,11.428,4.819,16.764.337S454.883,108.958,450.96,104.289Z" transform="translate(-427.516 -98.554)" fill="#e49b25"/>
                <g id="Group_304" data-name="Group 304" transform="translate(2.66 3.979)">
                  <g id="Group_303" data-name="Group 303" clip-path="url(#clip-path-4)">
                    <g id="Group_302" data-name="Group 302" transform="translate(-0.111 -0.03)">
                      <rect id="Rectangle_451" data-name="Rectangle 451" width="0.627" height="15.018" transform="translate(0 16.656) rotate(-40.038)" fill="#ca8220"/>
                      <rect id="Rectangle_452" data-name="Rectangle 452" width="0.627" height="15.018" transform="matrix(0.766, -0.643, 0.643, 0.766, 1.244, 15.61)" fill="#ca8220"/>
                      <rect id="Rectangle_453" data-name="Rectangle 453" width="0.627" height="15.018" transform="translate(2.664 14.417) rotate(-40.038)" fill="#ca8220"/>
                      <rect id="Rectangle_454" data-name="Rectangle 454" width="0.627" height="15.018" transform="matrix(0.766, -0.643, 0.643, 0.766, 4.436, 12.928)" fill="#ca8220"/>
                      <rect id="Rectangle_455" data-name="Rectangle 455" width="0.627" height="15.018" transform="translate(6.384 11.292) rotate(-40.038)" fill="#ca8220"/>
                      <rect id="Rectangle_456" data-name="Rectangle 456" width="0.627" height="15.018" transform="matrix(0.766, -0.643, 0.643, 0.766, 8.508, 9.507)" fill="#ca8220"/>
                      <rect id="Rectangle_457" data-name="Rectangle 457" width="0.627" height="15.018" transform="matrix(0.766, -0.643, 0.643, 0.766, 19.343, 0.403)" fill="#ca8220"/>
                      <rect id="Rectangle_458" data-name="Rectangle 458" width="0.627" height="15.018" transform="matrix(0.766, -0.643, 0.643, 0.766, 18.099, 1.449)" fill="#ca8220"/>
                      <rect id="Rectangle_459" data-name="Rectangle 459" width="0.627" height="15.018" transform="matrix(0.766, -0.643, 0.643, 0.766, 16.679, 2.641)" fill="#ca8220"/>
                      <rect id="Rectangle_460" data-name="Rectangle 460" width="0.627" height="15.018" transform="matrix(0.766, -0.643, 0.643, 0.766, 14.907, 4.13)" fill="#ca8220"/>
                      <rect id="Rectangle_461" data-name="Rectangle 461" width="0.627" height="15.018" transform="translate(12.959 5.767) rotate(-40.038)" fill="#ca8220"/>
                      <rect id="Rectangle_462" data-name="Rectangle 462" width="0.627" height="15.018" transform="matrix(0.766, -0.643, 0.643, 0.766, 10.835, 7.552)" fill="#ca8220"/>
                    </g>
                  </g>
                </g>
                <path id="Path_272" data-name="Path 272" d="M442.906,113.187c-5.336,4.483-12.841,4.332-16.764-.337s-2.778-12.088,2.558-16.571,12.841-4.332,16.764.336S448.242,108.7,442.906,113.187Z" transform="translate(-423.812 -93.013)" fill="#f0d05e"/>
                <path id="Path_273" data-name="Path 273" d="M428.679,96.872c5.336-4.483,12.841-4.332,16.764.337a10.149,10.149,0,0,1,2.325,6.863,10.232,10.232,0,0,0-2.294-7.456c-3.923-4.669-11.428-4.82-16.764-.336a13.294,13.294,0,0,0-4.882,9.708A13.391,13.391,0,0,1,428.679,96.872Z" transform="translate(-423.821 -93.013)" fill="#f3e178"/>
                <path id="Path_274" data-name="Path 274" d="M431.89,115.537c-2.922-3.477-1.929-9.139,2.215-12.62s9.891-3.484,12.813-.006,1.928,9.139-2.215,12.619S434.812,119.014,431.89,115.537Z" transform="translate(-427.537 -97.257)" fill="#f3e178"/>
                <path id="Path_275" data-name="Path 275" d="M432.189,114.946c-2.922-3.477-1.928-9.139,2.215-12.62s9.891-3.484,12.813-.006,1.928,9.139-2.215,12.619S435.111,118.423,432.189,114.946Z" transform="translate(-427.711 -96.913)" fill="#eaab39"/>
                <path id="Path_276" data-name="Path 276" d="M433.15,115.284c-2.922-3.477-1.928-9.139,2.215-12.62a10.262,10.262,0,0,1,9.212-2.294,10.006,10.006,0,0,0-10.174,1.956c-4.143,3.481-5.137,9.142-2.215,12.62a7.2,7.2,0,0,0,3.6,2.287,7.072,7.072,0,0,1-2.638-1.949Z" transform="translate(-427.711 -96.913)" fill="#ca8220"/>
              </g>
              <g id="Group_321" data-name="Group 321" transform="translate(0 46.345)">
                <path id="Path_270-2" data-name="Path 270" d="M450.96,104.289l-1.476-1.756-19.309,16.223,1.463,1.767c3.923,4.669,11.428,4.819,16.764.337S454.883,108.958,450.96,104.289Z" transform="translate(-427.516 -98.554)" fill="#e49b25"/>
                <g id="Group_304-2" data-name="Group 304" transform="translate(2.66 3.979)">
                  <g id="Group_303-2" data-name="Group 303" clip-path="url(#clip-path-4)">
                    <g id="Group_302-2" data-name="Group 302" transform="translate(-0.111 -0.03)">
                      <rect id="Rectangle_451-2" data-name="Rectangle 451" width="0.627" height="15.018" transform="translate(0 16.656) rotate(-40.038)" fill="#ca8220"/>
                      <rect id="Rectangle_452-2" data-name="Rectangle 452" width="0.627" height="15.018" transform="matrix(0.766, -0.643, 0.643, 0.766, 1.244, 15.61)" fill="#ca8220"/>
                      <rect id="Rectangle_453-2" data-name="Rectangle 453" width="0.627" height="15.018" transform="translate(2.664 14.417) rotate(-40.038)" fill="#ca8220"/>
                      <rect id="Rectangle_454-2" data-name="Rectangle 454" width="0.627" height="15.018" transform="matrix(0.766, -0.643, 0.643, 0.766, 4.436, 12.928)" fill="#ca8220"/>
                      <rect id="Rectangle_455-2" data-name="Rectangle 455" width="0.627" height="15.018" transform="translate(6.384 11.292) rotate(-40.038)" fill="#ca8220"/>
                      <rect id="Rectangle_456-2" data-name="Rectangle 456" width="0.627" height="15.018" transform="matrix(0.766, -0.643, 0.643, 0.766, 8.508, 9.507)" fill="#ca8220"/>
                      <rect id="Rectangle_457-2" data-name="Rectangle 457" width="0.627" height="15.018" transform="matrix(0.766, -0.643, 0.643, 0.766, 19.343, 0.403)" fill="#ca8220"/>
                      <rect id="Rectangle_458-2" data-name="Rectangle 458" width="0.627" height="15.018" transform="matrix(0.766, -0.643, 0.643, 0.766, 18.099, 1.449)" fill="#ca8220"/>
                      <rect id="Rectangle_459-2" data-name="Rectangle 459" width="0.627" height="15.018" transform="matrix(0.766, -0.643, 0.643, 0.766, 16.679, 2.641)" fill="#ca8220"/>
                      <rect id="Rectangle_460-2" data-name="Rectangle 460" width="0.627" height="15.018" transform="matrix(0.766, -0.643, 0.643, 0.766, 14.907, 4.13)" fill="#ca8220"/>
                      <rect id="Rectangle_461-2" data-name="Rectangle 461" width="0.627" height="15.018" transform="translate(12.959 5.767) rotate(-40.038)" fill="#ca8220"/>
                      <rect id="Rectangle_462-2" data-name="Rectangle 462" width="0.627" height="15.018" transform="matrix(0.766, -0.643, 0.643, 0.766, 10.835, 7.552)" fill="#ca8220"/>
                    </g>
                  </g>
                </g>
                <path id="Path_272-2" data-name="Path 272" d="M442.906,113.187c-5.336,4.483-12.841,4.332-16.764-.337s-2.778-12.088,2.558-16.571,12.841-4.332,16.764.336S448.242,108.7,442.906,113.187Z" transform="translate(-423.812 -93.013)" fill="#f0d05e"/>
                <path id="Path_273-2" data-name="Path 273" d="M428.679,96.872c5.336-4.483,12.841-4.332,16.764.337a10.149,10.149,0,0,1,2.325,6.863,10.232,10.232,0,0,0-2.294-7.456c-3.923-4.669-11.428-4.82-16.764-.336a13.294,13.294,0,0,0-4.882,9.708A13.391,13.391,0,0,1,428.679,96.872Z" transform="translate(-423.821 -93.013)" fill="#f3e178"/>
                <path id="Path_274-2" data-name="Path 274" d="M431.89,115.537c-2.922-3.477-1.929-9.139,2.215-12.62s9.891-3.484,12.813-.006,1.928,9.139-2.215,12.619S434.812,119.014,431.89,115.537Z" transform="translate(-427.537 -97.257)" fill="#f3e178"/>
                <path id="Path_275-2" data-name="Path 275" d="M432.189,114.946c-2.922-3.477-1.928-9.139,2.215-12.62s9.891-3.484,12.813-.006,1.928,9.139-2.215,12.619S435.111,118.423,432.189,114.946Z" transform="translate(-427.711 -96.913)" fill="#eaab39"/>
                <path id="Path_276-2" data-name="Path 276" d="M433.15,115.284c-2.922-3.477-1.928-9.139,2.215-12.62a10.262,10.262,0,0,1,9.212-2.294,10.006,10.006,0,0,0-10.174,1.956c-4.143,3.481-5.137,9.142-2.215,12.62a7.2,7.2,0,0,0,3.6,2.287,7.072,7.072,0,0,1-2.638-1.949Z" transform="translate(-427.711 -96.913)" fill="#ca8220"/>
              </g>
            </g>
            <g id="Group_311" data-name="Group 311" transform="translate(75.136 15.119)">
              <path id="Path_279" data-name="Path 279" d="M176.937,212.411l.08-.017h0a6.863,6.863,0,0,1-5.338-5.575l-.213-1.267-.2,1.179a6.862,6.862,0,0,1-5.344,5.576l-.079.017h0a6.864,6.864,0,0,1,5.338,5.575l.213,1.267.2-1.179A6.863,6.863,0,0,1,176.937,212.411Z" transform="translate(-157.991 -202.312)" fill="#fff"/>
              <path id="Path_280" data-name="Path 280" d="M543.935,172.266l.053-.011h0a4.6,4.6,0,0,1-3.58-3.738l-.143-.849-.133.79a4.6,4.6,0,0,1-3.583,3.739l-.053.011h0a4.6,4.6,0,0,1,3.579,3.738l.143.85.133-.791a4.6,4.6,0,0,1,3.584-3.739Z" transform="translate(-352.344 -112.963)" fill="#fff"/>
              <path id="Path_281" data-name="Path 281" d="M421.853,43.661l.079-.017h0a6.864,6.864,0,0,1-5.338-5.575l-.213-1.267-.2,1.179a6.862,6.862,0,0,1-5.344,5.576l-.079.017h0a6.863,6.863,0,0,1,5.339,5.575l.213,1.267.2-1.179a6.863,6.863,0,0,1,5.343-5.576Z" transform="translate(-254.411 -17.802)" fill="#fff"/>
              <path id="Path_282" data-name="Path 282" d="M231.456,393.487l.048-.01h0a4.1,4.1,0,0,1-3.193-3.334l-.127-.758-.118.7a4.1,4.1,0,0,1-3.2,3.335l-.048.01h0a4.1,4.1,0,0,1,3.193,3.335l.127.758.118-.7a4.105,4.105,0,0,1,3.2-3.331Z" transform="translate(-195.098 -226.552)" fill="#fff"/>
              <path id="Path_283" data-name="Path 283" d="M85.251,307.711l.037-.008h0a3.212,3.212,0,0,1-2.5-2.61l-.1-.593-.093.552a3.213,3.213,0,0,1-2.5,2.611l-.037.008h0a3.212,3.212,0,0,1,2.5,2.61l.1.593.093-.552a3.212,3.212,0,0,1,2.5-2.611Z" transform="translate(-80.057 -192.598)" fill="#fff"/>
              <path id="Path_284" data-name="Path 284" d="M541.659,373.107l.048-.01h0a4.105,4.105,0,0,1-3.193-3.334l-.128-.758-.118.7a4.105,4.105,0,0,1-3.2,3.335l-.048.01h0a4.105,4.105,0,0,1,3.193,3.334l.127.758.118-.7A4.105,4.105,0,0,1,541.659,373.107Z" transform="translate(-351.444 -230.139)" fill="#fff"/>
              <path id="Path_285" data-name="Path 285" d="M674.956,353.7l.031-.007h0a2.7,2.7,0,0,1-2.1-2.2l-.084-.5-.078.464a2.7,2.7,0,0,1-2.1,2.2l-.031.007h0a2.7,2.7,0,0,1,2.1,2.2l.084.5.078-.464A2.7,2.7,0,0,1,674.956,353.7Z" transform="translate(-432.229 -219.661)" fill="#fff"/>
            </g>
            <g id="Group_315" data-name="Group 315" transform="translate(197.591 47.08) rotate(25.976)">
              <g id="Group_313" data-name="Group 313" transform="translate(31.698 4.807)">
                <g id="Group_312" data-name="Group 312">
                  <path id="Path_286" data-name="Path 286" d="M104.338,47.99A45.19,45.19,0,0,1,101.8,59.436a44.685,44.685,0,0,1-4.01,8.315,43.2,43.2,0,0,1-4.431,6.04,35.351,35.351,0,0,1-11.006,8.678,35.96,35.96,0,0,1-13.263,3.58,52.17,52.17,0,0,1-21.022-2.868l-3.924-1.338,4.247.9a52.027,52.027,0,0,0,20.334.62A32.742,32.742,0,0,0,80.38,78.932a30.8,30.8,0,0,0,8.724-8.5A38.554,38.554,0,0,0,96.213,47.69,29.5,29.5,0,0,0,93.9,36.468a31.584,31.584,0,0,0-1.713-3.4,30.911,30.911,0,0,0-4.511-6c-.156-.166-.308-.324-.472-.481l-.228-.236a38.2,38.2,0,0,0-14.088-8.607c-.017,0-.025-.008-.042,0A43.157,43.157,0,0,0,67.9,16.3a47.962,47.962,0,0,0-11.4-1.175,54.855,54.855,0,0,0-6.371.5c-1.762.224-3.557.523-5.314.868A109.615,109.615,0,0,0,21.673,24.08c-5.052,2.241-10.014,4.8-14.949,7.516L0,12.749l3.064-2.066q2.35-.935,4.729-1.824l.53-.193c.221-.081.437-.158.654-.24.163-.06.325-.115.487-.176,1-.355,1.968-.7,2.872-1.01.129-.047.259-.09.384-.133l.567-.193c.146-.051.3-.1.438-.15.275-.094.55-.184.83-.275.133-.047.262-.086.387-.129A126.434,126.434,0,0,1,42.581.408,83.861,83.861,0,0,1,57.153.248a62.264,62.264,0,0,1,14.531,3.06c9.34,3.17,18.1,8.761,24.269,16.752a42.228,42.228,0,0,1,6.887,13.257,38.471,38.471,0,0,1,1.5,14.673Z" fill="#e58f22"/>
                  <path id="Path_287" data-name="Path 287" d="M.033,0H0" transform="translate(10.11 43.013)" fill="#ecb42a"/>
                  <path id="Path_288" data-name="Path 288" d="M0,0,.008.008" transform="translate(12.956 36.957)" fill="#ecb42a"/>
                </g>
              </g>
              <path id="Path_289" data-name="Path 289" d="M136.038,52.8A45.359,45.359,0,0,1,133.5,64.243c1.178-16.726-8.765-29.577-18.5-36.442a41.366,41.366,0,0,0-4.183-2.6,41.857,41.857,0,0,0-5.489-2.465c-9.929-3.652-19.742-3.271-23.5-2.308-1.765.227-3.56.523-5.316.868a109.551,109.551,0,0,0-23.143,7.587q-3.071,1.363-6.1,2.87L52.2,41.71a4.5,4.5,0,0,1-2.8,6.327,4.426,4.426,0,0,1-1.518.159L4.219,45.416A4.5,4.5,0,0,1,.76,38.436L23.482,4.3,25,2.008A4.492,4.492,0,0,1,31.467.916,4.428,4.428,0,0,1,32.774,2.5l5.712,11.531q.5-.187,1-.368l.531-.192c.219-.082.438-.161.652-.239.163-.061.326-.117.489-.178,1-.355,1.967-.7,2.875-1.011.128-.046.257-.089.381-.131.193-.063.381-.131.566-.194l.441-.148c.274-.1.548-.187.83-.274.133-.05.261-.088.385-.13A126.522,126.522,0,0,1,74.282,5.213a84.1,84.1,0,0,1,14.57-.157,62.128,62.128,0,0,1,14.532,3.061c9.34,3.166,18.1,8.759,24.266,16.749a42.252,42.252,0,0,1,6.888,13.256,38.55,38.55,0,0,1,1.5,14.678Z" fill="#e06f24"/>
              <g id="Group_314" data-name="Group 314" transform="translate(0 0.001)">
                <path id="Path_290" data-name="Path 290" d="M1.275,43.493,25.516,7.065a4.5,4.5,0,0,1,7.774.5l5,10.082,2.234.894.016-.006c.221-.081.438-.158.654-.239.163-.06.325-.116.488-.176,1-.355,1.967-.7,2.872-1.01.129-.047.258-.09.383-.133l.567-.193c.145-.051.3-.1.438-.15.275-.094.55-.184.829-.275.133-.047.263-.086.388-.129A126.434,126.434,0,0,1,74.8,10.273a83.909,83.909,0,0,1,14.571-.16,62.265,62.265,0,0,1,14.531,3.06c9.34,3.17,18.1,8.761,24.269,16.752a42.22,42.22,0,0,1,6.887,13.256,37.261,37.261,0,0,1,1.111,4.7,37.916,37.916,0,0,0-1.626-9.754,42.229,42.229,0,0,0-6.887-13.257c-6.17-7.991-14.929-13.583-24.269-16.752A62.266,62.266,0,0,0,88.851,5.054a83.863,83.863,0,0,0-14.571.159,126.437,126.437,0,0,0-27.64,5.954c-.125.043-.254.082-.387.129-.28.09-.555.18-.83.275-.142.051-.292.1-.438.15l-.567.193c-.125.043-.255.086-.384.133-.9.313-1.876.655-2.872,1.01-.162.06-.325.116-.487.176-.217.081-.433.158-.654.24a15.12,15.12,0,0,0-1.473.581l-.06-.021L32.774,2.5A4.5,4.5,0,0,0,25,2.006L.759,38.433a4.482,4.482,0,0,0,.318,5.4C1.14,43.723,1.2,43.606,1.275,43.493Z" fill="#f7863b"/>
                <path id="Path_291" data-name="Path 291" d="M.066,0A38,38,0,0,1,0,4.007q.226-.624.434-1.258Q.3,1.352.066,0Z" transform="translate(133.498 60.234)" fill="#eec02d"/>
              </g>
              <path id="Path_292" data-name="Path 292" d="M113.246,51.882a45.36,45.36,0,0,1-2.538,11.445c1.178-16.726-8.764-29.577-18.5-36.442a41.373,41.373,0,0,0-4.183-2.6,41.857,41.857,0,0,0-5.489-2.465c-9.929-3.652-19.742-3.271-23.5-2.308-1.765.227-3.56.523-5.316.868a109.549,109.549,0,0,0-23.143,7.587q-3.071,1.363-6.1,2.87l4.929,9.952a4.5,4.5,0,0,1-2.8,6.327,4.426,4.426,0,0,1-1.518.159L0,45.682C11.883,33.114,10.678,11.91,8.676,0A4.428,4.428,0,0,1,9.982,1.587l5.712,11.531q.5-.187,1-.368l.531-.192c.219-.082.438-.16.652-.239.163-.061.326-.117.489-.178,1-.355,1.967-.7,2.875-1.011.128-.046.257-.089.381-.131.193-.063.381-.131.566-.194l.441-.148c.274-.1.548-.187.83-.274.133-.05.261-.088.385-.13A126.517,126.517,0,0,1,51.49,4.3a84.1,84.1,0,0,1,14.57-.157A62.134,62.134,0,0,1,80.592,7.2c9.34,3.166,18.1,8.759,24.266,16.749a42.251,42.251,0,0,1,6.888,13.256A38.548,38.548,0,0,1,113.246,51.882Z" transform="translate(22.791 0.916)" fill="#f7863b" opacity="0.45"/>
            </g>
            <text id="MONEY_BACK" data-name="MONEY BACK" transform="matrix(0.966, -0.259, 0.259, 0.966, 159, 34.472)" fill="#f68634" font-size="21" font-family="Nunito-Black, Nunito" font-weight="800"><tspan x="0" y="0">MONEY</tspan><tspan x="0" y="21">BACK</tspan></text>
            <text id="GUARANTEE" transform="matrix(0.966, -0.259, 0.259, 0.966, 169, 67.472)" fill="#f68634" font-size="10" font-family="Nunito-Black, Nunito" font-weight="800"><tspan x="0" y="0">GUARANTEE</tspan></text>
          </g>
        </g>
      </g>
    </g>
  </g>
</svg>