<svg xmlns="http://www.w3.org/2000/svg" xmlns:xlink="http://www.w3.org/1999/xlink" width="340" height="340" viewBox="0 0 340 340">
  <defs>
    <clipPath id="clip-path">
      <rect id="Rectangle_30" data-name="Rectangle 30" width="8.134" height="8.124" transform="translate(27.232 157.335)"/>
    </clipPath>
    <radialGradient id="radial-gradient" cx="2.551" cy="-7.965" r="41.367" gradientTransform="matrix(0.999, 0, 0, -1, -0.053, -16.393)" gradientUnits="objectBoundingBox">
      <stop offset="0" stop-color="#ff9e0f"/>
      <stop offset="1" stop-color="#ffb241"/>
    </radialGradient>
    <radialGradient id="radial-gradient-2" cx="-372.756" cy="-148.247" r="5.079" gradientTransform="matrix(0.998, 0, 0, -1, 0, -27.401)" xlink:href="#radial-gradient"/>
    <clipPath id="clip-path-2">
      <rect id="Rectangle_34" data-name="Rectangle 34" width="8.134" height="8.124" transform="translate(309.011 86.504)"/>
    </clipPath>
    <radialGradient id="radial-gradient-3" cx="-349.637" cy="-163.599" r="5.084" gradientTransform="matrix(0.999, 0, 0, -1, -0.054, -28.436)" xlink:href="#radial-gradient"/>
    <clipPath id="clip-path-3">
      <path id="Path_93" data-name="Path 93" d="M227.507,214.664h-8.13v-8.133h8.136v8.133Z" clip-rule="evenodd"/>
    </clipPath>
    <radialGradient id="radial-gradient-4" cx="-372.756" cy="-148.247" r="5.079" gradientTransform="matrix(0.998, 0, 0, -1, -0.029, 0.123)" xlink:href="#radial-gradient"/>
    <linearGradient id="linear-gradient" x1="-1.177" y1="-3.182" x2="-1.166" y2="-3.182" gradientUnits="objectBoundingBox">
      <stop offset="0" stop-color="#1d53da"/>
      <stop offset="1" stop-color="#3f75fc"/>
    </linearGradient>
    <linearGradient id="linear-gradient-2" x1="-1.178" y1="-1.806" x2="-1.167" y2="-1.806" gradientUnits="objectBoundingBox">
      <stop offset="0" stop-color="#0397f6"/>
      <stop offset="1" stop-color="#00baff"/>
    </linearGradient>
    <clipPath id="clip-ic-signature">
      <rect width="340" height="340"/>
    </clipPath>
  </defs>
  <g id="ic-signature" clip-path="url(#clip-ic-signature)">
    <g id="ic-signature-2" data-name="ic-signature" transform="translate(11 63)">
      <path id="Path_75" data-name="Path 75" d="M273.34,122.525v29.2a3.132,3.132,0,0,1-1.8,2.5c-1.1.6-102.3,58.7-103.4,59.3a9.336,9.336,0,0,1-8.6,0c-1.1-.6-102.3-58.7-103.4-59.3a2.992,2.992,0,0,1-1.8-2.5v-29.6h.1a3.389,3.389,0,0,1,1.7-2c1.1-.6,102.3-59.6,103.4-60.2a9.336,9.336,0,0,1,8.6,0c1.1.6,102.3,59.6,103.4,60.2a3.389,3.389,0,0,1,1.7,2h.1v.4Z" fill="#3875a6"/>
      <path id="Path_76" data-name="Path 76" d="M271.54,124.725c-1.1.6-102.3,59.1-103.4,59.8a9.336,9.336,0,0,1-8.6,0c-1.1-.6-102.3-59.1-103.4-59.8a2.712,2.712,0,0,1-1.7-3.3,2.857,2.857,0,0,1,1.7-1.7c1.1-.6,102.3-59.1,103.4-59.8a9.336,9.336,0,0,1,8.6,0c1.1.6,102.3,59.1,103.4,59.8a2.562,2.562,0,0,1,1.6,3.3,2.688,2.688,0,0,1-1.6,1.7Zm-7.2-5.2c-1-.6-96-55.9-97.1-56.5a8.9,8.9,0,0,0-8.1,0c-1,.6-96,55.9-97.1,56.5a2.5,2.5,0,0,0,0,4.7c1,.6,96.1,55.9,97.1,56.5a8.9,8.9,0,0,0,8.1,0c1-.6,96.1-55.9,97.1-56.5a2.445,2.445,0,0,0,1.5-3.2A3.107,3.107,0,0,0,264.34,119.525Z" fill="#414b82"/>
      <path id="Path_77" data-name="Path 77" d="M159.24,180.525c-.8-.4-50.8-29.5-78.8-45.7,30.3-17.5,78.3-45.2,79-45.7a9.336,9.336,0,0,1,8.6,0c.8.4,48.1,27.8,78.5,45.4-27.9,16.2-78.5,45.6-79.3,46A8.7,8.7,0,0,1,159.24,180.525Z" fill="#252b4e"/>
      <path id="Path_78" data-name="Path 78" d="M67.34,142.425l5.3,3.2" fill="none"/>
      <path id="Path_79" data-name="Path 79" d="M67.34,147.725l5.3,3.2" fill="none"/>
      <path id="Path_80" data-name="Path 80" d="M76.94,147.725l5.3,3.2" fill="none"/>
      <path id="Path_81" data-name="Path 81" d="M76.94,153.125l5.3,3.2" fill="none"/>
      <path id="Path_82" data-name="Path 82" d="M252.34,147.125v7" fill="none"/>
      <path id="Path_83" data-name="Path 83" d="M256.34,144.625v7" fill="none"/>
      <path id="Path_84" data-name="Path 84" d="M260.34,142.125v7.5" fill="none"/>
      <path id="Path_85" data-name="Path 85" d="M264.34,140.025v7" fill="none"/>
      <path id="Path_86" data-name="Path 86" d="M111.84,171.425l38.6,22.1" fill="none"/>
      <g id="Group_6" data-name="Group 6">
        <path id="Path_87" data-name="Path 87" d="M126.017,176.4l12.742,7.448" fill="none" stroke="#252b4e" stroke-linecap="round" stroke-width="1"/>
        <path id="Path_88" data-name="Path 88" d="M140.722,184.922l12.742,7.448" fill="none" stroke="#252b4e" stroke-linecap="round" stroke-width="1"/>
        <path id="Path_89" data-name="Path 89" d="M125.772,183.4l12.742,7.448" fill="none" stroke="#252b4e" stroke-linecap="round" stroke-width="1"/>
        <path id="Path_90" data-name="Path 90" d="M140.477,191.915l12.742,7.448" fill="none" stroke="#252b4e" stroke-linecap="round" stroke-width="1"/>
        <path id="Path_91" data-name="Path 91" d="M111.024,167.407l12.742,7.448" fill="none" stroke="#252b4e" stroke-linecap="round" stroke-width="1"/>
        <path id="Path_92" data-name="Path 92" d="M110.779,174.4l12.742,7.448" fill="none" stroke="#252b4e" stroke-linecap="round" stroke-width="1"/>
      </g>
      <g id="led-group-2">
        <g id="lampu-3">
          <g id="Group_7" data-name="Group 7" clip-path="url(#clip-path)">
            <rect id="Rectangle_29" data-name="Rectangle 29" width="14.267" height="15.868" transform="translate(24.042 153.357)" fill="#36a4ce"/>
          </g>
          <rect id="Rectangle_31" data-name="Rectangle 31" width="8.136" height="8.124" transform="translate(292.378 67.089)" fill="url(#radial-gradient)"/>
        </g>
        <g id="lampu-2">
          <rect id="Rectangle_32" data-name="Rectangle 32" width="8.14" height="8.126" transform="translate(0 111.83)" fill="url(#radial-gradient-2)"/>
          <g id="Group_8" data-name="Group 8" clip-path="url(#clip-path-2)">
            <rect id="Rectangle_33" data-name="Rectangle 33" width="14.267" height="15.868" transform="translate(305.821 82.526)" fill="#36a4ce"/>
          </g>
          <rect id="Rectangle_35" data-name="Rectangle 35" width="8.136" height="8.124" transform="translate(296.377 116.009)" fill="url(#radial-gradient-3)"/>
        </g>
        <g id="lampu-1">
          <g id="Group_9" data-name="Group 9" clip-path="url(#clip-path-3)">
            <rect id="Rectangle_36" data-name="Rectangle 36" width="14.267" height="13.844" transform="translate(216.912 204.219)" fill="#36a4ce"/>
          </g>
          <rect id="Rectangle_37" data-name="Rectangle 37" width="8.14" height="8.126" transform="translate(139.78)" fill="url(#radial-gradient-4)"/>
          <path id="Path_94" data-name="Path 94" d="M57.12,143.564l5.769,3.391v-6.4l-5.769-3.391Z" fill="#36ce7d"/>
        </g>
      </g>
      <g id="Group_12" data-name="Group 12">
        <g id="Group_10" data-name="Group 10">
          <path id="Path_95" data-name="Path 95" d="M115.34,71.924c0,1.5,1,3,3,4.1l38.4,21.8a15.9,15.9,0,0,0,14.4,0l19.1-10.9,19.2-10.9c2-1.1,3-2.6,3-4.1v-13.4h-97.1v13.4Zm59,36c0,1.5,1,3,3,4.1l38.4,21.8a15.9,15.9,0,0,0,14.4,0l19.1-10.9,19.2-10.9c2-1.1,3-2.6,3-4.1v-13.4h-97Zm-23-13.4h-97v13.4c0,1.5,1,3,3,4.1l19.2,11.2,16.8,9.3,2.4,1.4a15.9,15.9,0,0,0,14.4,0l19.1-11,19.2-10.9c2-1.1,3-2.6,3-4.1l-.1-13.4Z" fill="#373f6e"/>
          <path id="Path_96" data-name="Path 96" d="M61.24,106.724a1.121,1.121,0,0,0-1.6.1,1.609,1.609,0,0,0-.3.9v5.7l34,19.1v-4.7a4.172,4.172,0,0,0-1.8-3.1l-30.3-18Zm61-36a1.121,1.121,0,0,0-1.6.1,1.609,1.609,0,0,0-.3.9v5.7l34,19.1v-4.7a4.172,4.172,0,0,0-1.8-3.1l-30.3-18Zm59.9,35a1.121,1.121,0,0,0-1.6.1,1.609,1.609,0,0,0-.3.9v7.3l34,19.5v-6.7a4.172,4.172,0,0,0-1.8-3.1l-30.3-18Z" fill="rgba(54,164,206,0.7)"/>
          <path id="Path_97" data-name="Path 97" d="M268.44,98.624c2-1.1,3-2.6,3-4.1s-1-3-3-4.2l-19.2-11.1-19.2-11.1a15.9,15.9,0,0,0-14.4,0l-19.2,11.1-19.1,11.1c-2,1.1-3,2.6-3,4.2s1,3,3,4.1l38.4,22.2a15.9,15.9,0,0,0,14.4,0l19.2-11.1,19.1-11.1Zm-59-36c2-1.1,3-2.6,3-4.2s-1-3-3-4.2l-19.2-11.1-19.2-10.9a15.9,15.9,0,0,0-14.4,0l-19.1,11.1-19.2,11c-2,1.1-3,2.6-3,4.2s1,3,3,4.1l38.4,22.2a15.9,15.9,0,0,0,14.4,0l19.2-11.1,19.1-11.1Zm-61,36c2-1.1,3-2.6,3-4.1s-1-3-3-4.2l-19.2-11-19.2-11.1a15.9,15.9,0,0,0-14.4,0l-19.1,11.1-19.2,11c-2,1.1-3,2.6-3,4.2s1,3,3,4.1l38.4,22.2a15.9,15.9,0,0,0,14.4,0l19.2-11.1,19.1-11.1Z" fill="#39437b"/>
        </g>
        <g id="Group_11" data-name="Group 11">
          <path id="Path_98" data-name="Path 98" d="M114.34,130.524h97v13.4c0,1.5-1,3-3,4.1l-19.1,10.9-19.2,10.9a15.9,15.9,0,0,1-14.4,0l-2.4-1.4-16.8-10.3-16.8-8.7-2.4-1.4c-2-1.1-3-2.6-3-4.1Z" fill="url(#linear-gradient)"/>
          <path id="Path_99" data-name="Path 99" d="M122.14,143.724a1.121,1.121,0,0,0-1.6.1,1.609,1.609,0,0,0-.3.9v5.7l34,19.1v-4.7a4.172,4.172,0,0,0-1.8-3.1l-30.3-18Z" fill="#162f7e"/>
          <path id="Path_100" data-name="Path 100" d="M208.44,133.624c2-1.1,3-2.6,3-4.1s-1-3-3-4.2l-19.2-11.1-19.2-11.1a15.9,15.9,0,0,0-14.4,0l-19.1,11.2-19.2,11c-2,1.1-3,2.6-3,4.2s1,3,3,4.1l38.4,22.2a15.9,15.9,0,0,0,14.4,0l19.2-11.1,19.1-11.1Z" fill="url(#linear-gradient-2)"/>
          <path id="Path_101" data-name="Path 101" d="M164.74,153.224a3.424,3.424,0,0,1-2.8,0c-.8-.4-.8-1,0-1.4a3.424,3.424,0,0,1,2.8,0C165.54,152.124,165.54,152.824,164.74,153.224Zm-42-23a3.424,3.424,0,0,1-2.8,0c-.8-.4-.8-1,0-1.4a3.424,3.424,0,0,1,2.8,0C123.54,129.124,123.54,129.824,122.74,130.224Zm83,0a3.424,3.424,0,0,1-2.8,0c-.8-.4-.8-1,0-1.4a3.424,3.424,0,0,1,2.8,0C206.54,129.124,206.54,129.824,205.74,130.224Zm-41-23a3.424,3.424,0,0,1-2.8,0c-.8-.4-.8-1,0-1.4a3.424,3.424,0,0,1,2.8,0C165.54,106.124,165.54,106.824,164.74,107.224Z" fill="#e6e6e6"/>
        </g>
      </g>
      <path id="Path_102" data-name="Path 102" d="M169.969,127.786l-7.707,4.028a6.925,6.925,0,0,1-6.222-.234c-1.7-1.06-1.632-2.671.117-3.582l.71-.382-.339-.212c-1.7-1.06-1.633-2.671.116-3.583a6.927,6.927,0,0,1,6.223.233l.339.212.71-.381a6.925,6.925,0,0,1,6.222.233c1.643,1.145,1.58,2.756-.169,3.668Z" fill="#ffa92a" stroke="#fff" stroke-width="1"/>
    </g>
  </g>
</svg>
