<svg xmlns="http://www.w3.org/2000/svg" xmlns:xlink="http://www.w3.org/1999/xlink" width="340" height="340" viewBox="0 0 340 340">
  <defs>
    <linearGradient id="linear-gradient" x1="-0.402" y1="-0.458" x2="-0.396" y2="-0.458" gradientUnits="objectBoundingBox">
      <stop offset="0" stop-color="#17bdff" stop-opacity="0.8"/>
      <stop offset="1" stop-color="#17bdff" stop-opacity="0"/>
    </linearGradient>
    <linearGradient id="linear-gradient-2" x1="-0.433" y1="-0.873" x2="-0.425" y2="-0.873" gradientUnits="objectBoundingBox">
      <stop offset="0" stop-color="#1d53da"/>
      <stop offset="1" stop-color="#3f75fc"/>
    </linearGradient>
    <clipPath id="clip-path">
      <rect id="Rectangle_21" data-name="Rectangle 21" width="8.128" height="8.118" transform="translate(27.215 157.211)"/>
    </clipPath>
    <radialGradient id="radial-gradient" cx="2.551" cy="-7.964" r="41.366" gradientTransform="matrix(0.999, 0, 0, -1, -0.053, -16.392)" gradientUnits="objectBoundingBox">
      <stop offset="0" stop-color="#ff9e0f"/>
      <stop offset="1" stop-color="#ffb241"/>
    </radialGradient>
    <radialGradient id="radial-gradient-2" cx="-372.743" cy="-148.242" r="5.079" gradientTransform="matrix(0.998, 0, 0, -1, 0, -27.4)" xlink:href="#radial-gradient"/>
    <clipPath id="clip-path-2">
      <rect id="Rectangle_25" data-name="Rectangle 25" width="8.128" height="8.118" transform="translate(308.776 86.435)"/>
    </clipPath>
    <radialGradient id="radial-gradient-3" cx="-349.625" cy="-163.594" r="5.084" gradientTransform="matrix(0.999, 0, 0, -1, -0.054, -28.435)" xlink:href="#radial-gradient"/>
    <clipPath id="clip-path-3">
      <path id="Path_74" data-name="Path 74" d="M227.334,214.5h-8.127v-8.127h8.13V214.5Z" clip-rule="evenodd"/>
    </clipPath>
    <radialGradient id="radial-gradient-4" cx="-372.743" cy="-148.242" r="5.079" gradientTransform="matrix(0.998, 0, 0, -1, -0.029, 0.123)" xlink:href="#radial-gradient"/>
    <clipPath id="clip-ic-vhp">
      <rect width="340" height="340"/>
    </clipPath>
  </defs>
  <g id="ic-vhp" clip-path="url(#clip-ic-vhp)">
    <g id="ic-vhp-2" data-name="ic-vhp" transform="translate(12 62)">
      <path id="Path_49" data-name="Path 49" d="M273.509,122.989v29.2a3.131,3.131,0,0,1-1.8,2.5c-1.1.6-102.3,58.7-103.4,59.3a9.336,9.336,0,0,1-8.6,0c-1.1-.6-102.3-58.7-103.4-59.3a2.991,2.991,0,0,1-1.8-2.5v-29.6h.1a3.4,3.4,0,0,1,1.7-2c1.1-.6,102.3-59.6,103.4-60.2a9.342,9.342,0,0,1,8.6,0c1.1.6,102.3,59.6,103.4,60.2a3.4,3.4,0,0,1,1.7,2h.1v.4Z" fill="#3875a6"/>
      <path id="Path_50" data-name="Path 50" d="M271.709,125.189c-1.1.6-102.3,59.1-103.4,59.8a9.336,9.336,0,0,1-8.6,0c-1.1-.6-102.3-59.1-103.4-59.8a2.711,2.711,0,0,1-1.7-3.3,2.86,2.86,0,0,1,1.7-1.7c1.1-.6,102.3-59.1,103.4-59.8a9.342,9.342,0,0,1,8.6,0c1.1.6,102.3,59.1,103.4,59.8a2.562,2.562,0,0,1,1.6,3.3,2.684,2.684,0,0,1-1.6,1.7Zm-7.2-5.2c-1-.6-96-55.9-97.1-56.5a8.911,8.911,0,0,0-8.1,0c-1,.6-96,55.9-97.1,56.5a2.5,2.5,0,0,0,0,4.7c1,.6,96.1,55.9,97.1,56.5a8.9,8.9,0,0,0,8.1,0c1-.6,96.1-55.9,97.1-56.5a2.448,2.448,0,0,0,1.5-3.2,3.115,3.115,0,0,0-1.5-1.5Z" fill="#414b82"/>
      <path id="Path_51" data-name="Path 51" d="M159.409,180.989c-.8-.4-50.8-29.5-78.8-45.7,30.3-17.5,78.3-45.2,79-45.7a9.342,9.342,0,0,1,8.6,0c.8.4,48.1,27.8,78.5,45.4-27.9,16.2-78.5,45.6-79.3,46a8.693,8.693,0,0,1-8,0Z" fill="#252b4e"/>
      <path id="Path_52" data-name="Path 52" d="M67.509,142.889l5.3,3.2" fill="none"/>
      <path id="Path_53" data-name="Path 53" d="M67.509,148.189l5.3,3.2" fill="none"/>
      <path id="Path_54" data-name="Path 54" d="M77.109,148.189l5.3,3.2" fill="none"/>
      <path id="Path_55" data-name="Path 55" d="M77.109,153.589l5.3,3.2" fill="none"/>
      <path id="Path_56" data-name="Path 56" d="M252.509,147.589v7" fill="none"/>
      <path id="Path_57" data-name="Path 57" d="M256.509,145.089v7" fill="none"/>
      <path id="Path_58" data-name="Path 58" d="M260.509,142.589v7.5" fill="none"/>
      <path id="Path_59" data-name="Path 59" d="M264.509,140.489v7" fill="none"/>
      <path id="Path_60" data-name="Path 60" d="M112.009,171.889l38.6,22.1" fill="none"/>
      <path id="Path_61" data-name="Path 61" d="M273.509,79.389l-175-27.7v29.6l112.2,64.6,59.9-34.2c2-1.1,2.9-2.6,2.9-4.1v-28.2Z" fill="#373f6e"/>
      <path id="Path_62" data-name="Path 62" d="M211.709,115.989l9.4-5.4,50.3-29.3c1.2-.7,2-1,2.1-2.4,0-.6-.1-1.8-2.1-2.9l-103.3-59.9a7.6,7.6,0,0,0-3.6-1.1,5.324,5.324,0,0,0-3.8,1.1l-52.8,30.2-9.4,5.4,113.2,64.3Z" fill="#39437b"/>
      <path id="Path_63" data-name="Path 63" d="M60.749,74.729l38-23.14,113,64.4v29.33l-31.77,18.84L60.749,74.729Z" fill="url(#linear-gradient)"/>
      <path id="Path_64" data-name="Path 64" d="M54.509,80.089v28.5c0,1.5,1,3,2.9,4.1l100.9,57.5c3.3,1.8,7.29,2.15,10.09.65l12.11-7v-28.38l-126-55.37Z" fill="url(#linear-gradient-2)"/>
      <path id="Path_65" data-name="Path 65" d="M68.909,70.089l-11.3,6.4c-4.7,2.8-2.7,5-2.1,5.3l102.9,59.5c2.5,1.5,5.4,2.7,8.5,1.1l13.6-6.93-111.6-65.37Z" fill="#0397f6"/>
      <path id="Path_66" data-name="Path 66" d="M112.309,135.789l-7.5-4.4a6.923,6.923,0,0,1-3.1-5.4c0-2,1.4-2.8,3.1-1.8l.7.4v-.4c0-2,1.4-2.8,3.1-1.8a6.927,6.927,0,0,1,3.1,5.4v.4l.7.4a6.927,6.927,0,0,1,3.1,5.4c-.1,2-1.5,2.8-3.2,1.8Z" fill="#ffa92a" stroke="#fff" stroke-width="1"/>
      <g id="Group_2" data-name="Group 2">
        <path id="Path_67" data-name="Path 67" d="M56.09,143.116l5.765,3.389v-6.4l-5.765-3.389v6.4Z" fill="rgba(54,206,125,0.56)"/>
        <path id="Path_68" data-name="Path 68" d="M126.186,176.869l12.742,7.448" fill="none" stroke="#252b4e" stroke-linecap="round" stroke-width="1"/>
        <path id="Path_69" data-name="Path 69" d="M140.891,185.386l12.742,7.448" fill="none" stroke="#252b4e" stroke-linecap="round" stroke-width="1"/>
        <path id="Path_70" data-name="Path 70" d="M125.941,183.862l12.742,7.448" fill="none" stroke="#252b4e" stroke-linecap="round" stroke-width="1"/>
        <path id="Path_71" data-name="Path 71" d="M140.646,192.379l12.742,7.448" fill="none" stroke="#252b4e" stroke-linecap="round" stroke-width="1"/>
        <path id="Path_72" data-name="Path 72" d="M111.193,167.871l12.742,7.448" fill="none" stroke="#252b4e" stroke-linecap="round" stroke-width="1"/>
        <path id="Path_73" data-name="Path 73" d="M110.948,174.864l12.742,7.448" fill="none" stroke="#252b4e" stroke-linecap="round" stroke-width="1"/>
      </g>
      <g id="led-group">
        <g id="animled-3">
          <g id="Group_3" data-name="Group 3" clip-path="url(#clip-path)">
            <rect id="Rectangle_20" data-name="Rectangle 20" width="14.256" height="15.856" transform="translate(24.023 153.238)" fill="#36a4ce"/>
          </g>
          <rect id="Rectangle_22" data-name="Rectangle 22" width="8.13" height="8.118" transform="translate(292.152 67.035)" fill="url(#radial-gradient)"/>
        </g>
        <g id="animled-2">
          <rect id="Rectangle_23" data-name="Rectangle 23" width="8.134" height="8.12" transform="translate(0 111.743)" fill="url(#radial-gradient-2)"/>
          <g id="Group_4" data-name="Group 4" clip-path="url(#clip-path-2)">
            <rect id="Rectangle_24" data-name="Rectangle 24" width="14.256" height="15.856" transform="translate(305.584 82.462)" fill="#36a4ce"/>
          </g>
          <rect id="Rectangle_26" data-name="Rectangle 26" width="8.13" height="8.118" transform="translate(296.148 115.919)" fill="url(#radial-gradient-3)"/>
        </g>
        <g id="animled-1">
          <g id="Group_5" data-name="Group 5" clip-path="url(#clip-path-3)">
            <rect id="Rectangle_27" data-name="Rectangle 27" width="14.256" height="13.833" transform="translate(216.744 204.061)" fill="#36a4ce"/>
          </g>
          <rect id="Rectangle_28" data-name="Rectangle 28" width="8.134" height="8.12" transform="translate(139.672)" fill="url(#radial-gradient-4)"/>
          <path id="power" d="M56.09,143.116l5.765,3.389v-6.4l-5.765-3.389v6.4Z" fill="#36ce7d"/>
        </g>
      </g>
    </g>
  </g>
</svg>
